<svg width="393" height="852" viewBox="0 0 393 852" fill="none" xmlns="http://www.w3.org/2000/svg">
<g clip-path="url(#clip0_164_2184)">
<rect width="393" height="852" fill="#AADAFF"/>
<g clip-path="url(#clip1_164_2184)">
<path d="M243.612 785.788C241.231 789.529 238.693 793.178 236.178 796.813C228.758 807.539 220.304 819.024 217.581 832.116C214.843 845.235 215.734 858.971 220.663 871.636C226.407 886.428 237.747 898.691 250.368 907.871C259.529 914.533 270.389 918.967 281.583 919.908C294.413 920.984 304.584 917.935 314.585 909.838C321.567 904.19 327.737 897.478 335.218 892.518C348.841 883.479 365.622 880.896 381.621 877.344C391.244 875.204 400.912 872.518 409.618 867.851C413.997 865.508 417.942 862.628 421.585 859.237C424.324 856.681 427.443 854.972 430.019 852.168C440.963 840.226 448.412 824.853 450.533 808.559C451.441 801.593 451.36 794.469 450.175 787.507C445.814 761.856 425.413 738.737 400.105 733.758C391.305 732.019 382.162 732.361 373.544 729.793C360.662 725.962 350.341 716.11 338.183 710.287C322.436 702.755 303.577 702.492 287.928 709.573C273.673 716.028 260.389 729.635 256.329 745.235C254.093 753.814 255.388 762.27 251.842 770.597C249.58 775.92 246.723 780.924 243.624 785.781L243.612 785.788Z" fill="#3291D9" fill-opacity="0.5"/>
</g>
<g clip-path="url(#clip2_164_2184)">
<path d="M-117.344 60.1087C-120.333 64.8025 -123.517 69.3824 -126.673 73.9437C-135.986 87.4034 -146.595 101.816 -150.012 118.246C-153.448 134.708 -152.329 151.945 -146.144 167.839C-138.935 186.401 -124.705 201.79 -108.867 213.311C-97.3704 221.67 -83.7429 227.235 -69.6956 228.415C-53.5946 229.765 -40.8307 225.94 -28.2808 215.778C-19.5195 208.691 -11.7764 200.268 -2.38775 194.044C14.707 182.7 35.7659 179.46 55.8435 175.002C67.9192 172.316 80.0512 168.946 90.9761 163.089C96.4714 160.149 101.423 156.535 105.993 152.279C109.431 149.071 113.345 146.927 116.578 143.408C130.311 128.422 139.659 109.131 142.321 88.6837C143.46 79.9414 143.358 71.0025 141.871 62.2648C136.399 30.076 110.798 1.0639 79.0382 -5.18498C67.9957 -7.36663 56.5221 -6.93798 45.7073 -10.1596C29.5412 -14.9682 16.5896 -27.3311 1.33226 -34.6386C-18.4281 -44.09 -42.0941 -44.4202 -61.7333 -35.5346C-79.6218 -27.4339 -96.2919 -10.3581 -101.387 9.2175C-104.192 19.9841 -102.568 30.5949 -107.017 41.0447C-109.855 47.7243 -113.441 54.0045 -117.33 60.0994L-117.344 60.1087Z" fill="#3291D9" fill-opacity="0.5"/>
</g>
</g>
<defs>
<clipPath id="clip0_164_2184">
<rect width="393" height="852" fill="white"/>
</clipPath>
<clipPath id="clip1_164_2184">
<rect width="245" height="200" fill="white" transform="translate(165 772.454) rotate(-33.2842)"/>
</clipPath>
<clipPath id="clip2_164_2184">
<rect width="307.451" height="250.98" fill="white" transform="translate(-216 64.7271) rotate(-33.2842)"/>
</clipPath>
</defs>
</svg>
