<svg width="69" height="82" viewBox="0 0 69 82" fill="none" xmlns="http://www.w3.org/2000/svg">
<path d="M65.6762 25.9595C65.4635 26.6619 64.719 27.1161 63.9746 27.5985C62.3527 28.6427 60.425 29.4248 58.4641 30.1225C44.7312 35.0067 27.9007 35.9339 13.8752 31.4805C11.4623 30.7125 9.12255 29.7807 7.13507 28.535C6.35071 28.0433 4.35657 26.9101 4.15716 26.1328C3.91121 25.2196 6.64983 25.4303 7.54054 25.2805C7.64025 25.2617 7.7466 25.2477 7.84631 25.229C9.40173 24.9761 10.997 24.8216 12.5857 24.7185C23.2676 24.0068 34.1622 25.4537 44.7112 24.0536C49.8295 23.3746 54.8946 22.0212 60.0793 22.3537C61.4819 22.4427 62.911 22.6675 64.041 23.2575C64.1274 23.3043 64.2072 23.3465 64.287 23.4027C65.284 24.0208 65.9421 25.0604 65.6696 25.9548L65.6762 25.9595Z" fill="#3291D9"/>
<g style="mix-blend-mode:multiply" opacity="0.5">
<path d="M65.6762 25.9594C65.4635 26.6619 64.719 27.1161 63.9746 27.5984C62.3527 28.6427 60.425 29.4247 58.4641 30.1225C44.7312 35.0066 27.9007 35.9338 13.8752 31.4805C11.4623 30.7125 9.12255 29.7806 7.13507 28.535C6.35071 28.0433 4.35657 26.9101 4.15716 26.1327C3.91121 25.2196 6.64983 25.4303 7.54054 25.2804C7.64025 25.2617 7.7466 25.2477 7.84631 25.2289C8.34484 25.2898 8.84338 25.346 9.31532 25.3835C11.7482 25.5848 14.1744 25.7768 16.6006 25.9594C19.3325 26.1655 22.0645 26.3575 24.8031 26.5261C38.0508 27.3409 51.9699 27.5516 63.9679 23.5103C64.0743 23.4776 64.1806 23.4401 64.2936 23.3979C65.2907 24.0161 65.9488 25.0557 65.6762 25.9501V25.9594Z" fill="#3291D9"/>
</g>
<path d="M65.716 25.73L64.6059 36.7861L61.2159 70.4696C61.0298 72.3334 59.2483 73.9255 56.7291 74.5109C37.9177 78.8987 21.5326 76.4168 13.011 74.3938C10.5183 73.7991 8.78343 72.2116 8.60396 70.3666L4.56251 30.1927L4.15039 26.1374C5.65264 26.2591 7.16153 26.5354 8.65049 26.6478C11.4556 26.8492 14.2806 26.9428 17.079 27.102C22.3568 27.4017 27.6147 27.8653 32.8992 28.0246C42.6106 28.3149 52.455 27.9965 61.9537 26.423C63.2167 26.2123 64.4663 25.9829 65.7093 25.73H65.716Z" fill="#68CEFF"/>
<g style="mix-blend-mode:multiply" opacity="0.5">
<path d="M64.6059 36.7863L61.2159 70.4698C61.0298 72.3335 59.2483 73.9257 56.7291 74.511C37.9177 78.8988 21.5326 76.4169 13.011 74.394C10.5183 73.7992 8.78342 72.2118 8.60395 70.3667L4.5625 30.1929C6.2974 34.9553 7.68 39.7833 8.69036 44.6487C9.50795 48.5776 10.0995 52.5393 11.5553 56.3745C13.0176 60.205 15.4172 63.956 19.3856 66.775C23.3472 69.5941 29.0438 71.3735 34.6274 70.8538C38.948 70.451 42.8565 68.7278 45.8677 66.5081C48.8788 64.2884 51.0923 61.5958 53.0798 58.8657C58.1781 51.8743 62.0534 44.4427 64.6059 36.791V36.7863Z" fill="#68CEFF"/>
</g>
<g style="mix-blend-mode:screen" opacity="0.5">
<path d="M39.9051 29.4621C32.9123 29.4902 25.9395 29.0266 18.9933 28.4506C16.6003 28.2539 14.1675 28.0385 11.7944 28.3382C10.6445 28.4834 9.4613 28.7737 8.69689 29.3965C7.89923 30.0428 7.66658 30.9606 7.82611 31.8082C7.99229 32.6558 8.51077 33.4472 9.08907 34.2011C11.4355 37.2683 14.8854 40.0078 19.3456 41.5203C22.8619 42.7145 26.8169 43.0938 30.7188 43.2342C34.0955 43.3513 37.5454 43.2904 40.7692 42.5787C44.7442 41.6983 48.1608 39.8673 51.2118 37.8631C54.2629 35.8588 57.0281 33.6438 60.2253 31.7567C61.1027 31.2416 62.0267 30.7358 62.6183 30.0474C63.0769 29.523 63.7616 27.6826 62.2261 27.6826C61.3952 27.6826 60.438 27.9449 59.6204 28.0619C58.7364 28.1837 57.8457 28.3007 56.9549 28.4085C53.3256 28.844 49.6697 29.1483 46.0005 29.3169C43.9731 29.4106 41.9458 29.4574 39.9117 29.4668L39.9051 29.4621Z" fill="#9CF1FF"/>
</g>
<g style="mix-blend-mode:screen" opacity="0.5">
<path d="M20.9346 29.495C18.854 29.3311 16.687 29.1625 14.7062 29.6401C14.1944 29.7666 13.6294 30.0007 13.5895 30.38C13.5496 30.7734 14.088 31.0684 14.5733 31.2651C18.4352 32.8432 22.8822 33.6299 27.3357 33.8313C31.7893 34.0326 36.2695 33.6627 40.6433 33.0399C42.9764 32.7074 45.3295 32.2906 47.4233 31.4758C47.9484 31.2698 49.1117 30.7968 48.1611 30.4362C47.3768 30.1412 46.28 30.2676 45.4425 30.3051C40.1846 30.5346 34.9134 30.3988 29.6689 30.1037C26.7508 29.9398 23.8393 29.7244 20.9346 29.4903V29.495Z" fill="#9CF1FF"/>
</g>
<g style="mix-blend-mode:screen" opacity="0.5">
<path d="M51.4843 30.0896C51.1985 30.1739 50.9127 30.2769 50.7132 30.4455C50.5138 30.614 50.4208 30.8622 50.567 31.0542C50.7531 31.2977 51.2118 31.3539 51.604 31.368C52.169 31.3867 52.7406 31.3867 53.3123 31.3633C54.2761 31.3212 55.2399 31.2134 56.1439 30.9793C56.6757 30.8435 58.0716 30.4923 58.2045 30.0334C58.4173 29.2607 55.4659 29.448 54.9209 29.4949C53.751 29.5979 52.5744 29.7665 51.4843 30.0943V30.0896Z" fill="#9CF1FF"/>
</g>
<path opacity="0.19" d="M34.7275 1C16.1022 1 1 3.34609 1 6.24007C1 6.29158 1 6.34309 1.01329 6.38992L7.24164 72.7641L7.60059 76.5338C7.60059 76.5338 7.93959 78.8752 9.5349 79.5964C9.6346 79.6479 9.7476 79.6853 9.86061 79.7181C10.8643 80.0038 24.338 81.1323 34.7341 80.9872C45.1302 81.1323 58.6106 80.0038 59.6076 79.7181C59.8802 79.6432 60.1194 79.5214 60.3322 79.3669C61.5885 78.4725 61.8743 76.5291 61.8743 76.5291L62.2 73.0545L68.4416 6.38992C68.4549 6.33841 68.4549 6.2869 68.4549 6.24007C68.4616 3.34609 53.3593 1 34.7275 1Z" fill="#9CCAFF"/>
<path opacity="0.33" d="M68.4015 6.87225L62.2663 72.2678L62.1931 73.0592L61.8674 76.5338C61.8674 76.5338 61.8674 76.5432 61.8674 76.5572C61.8674 76.5666 61.8674 76.576 61.8674 76.5853C61.8674 76.5994 61.8674 76.6087 61.8674 76.6275C61.8674 76.6415 61.8674 76.6602 61.8541 76.6837C61.8541 76.6977 61.8541 76.7164 61.8408 76.7352C61.8408 76.7633 61.8275 76.7867 61.8209 76.8195C61.8209 76.8382 61.8076 76.8616 61.8076 76.885C61.8076 76.9178 61.7943 76.9553 61.781 76.9927C61.781 77.0161 61.7677 77.0396 61.7677 77.063C61.7544 77.1051 61.7478 77.1426 61.7278 77.1894C61.7278 77.2035 61.7145 77.2222 61.7145 77.2409C61.688 77.3346 61.6481 77.4329 61.6148 77.5359C61.6148 77.564 61.6015 77.5921 61.5882 77.6202C61.5749 77.6671 61.5484 77.7092 61.5284 77.7607C61.5284 77.7748 61.5151 77.7935 61.5085 77.8122C61.5085 77.831 61.4952 77.8497 61.4885 77.8684C61.4686 77.9152 61.4487 77.9574 61.4221 78.0089C61.4021 78.0464 61.3822 78.0838 61.3622 78.126C61.3423 78.1728 61.3157 78.2149 61.2891 78.2571C61.2625 78.2992 61.2426 78.3414 61.216 78.3882C61.1961 78.4304 61.1695 78.4725 61.1429 78.5146L61.0432 78.6504C61.0166 78.6879 60.9966 78.7207 60.9701 78.7628C60.9102 78.8424 60.8438 78.9174 60.7773 78.9923C60.764 79.0063 60.7507 79.0204 60.7374 79.0344C60.6776 79.0953 60.6111 79.1562 60.5513 79.2077C60.5247 79.2311 60.4981 79.2545 60.4715 79.2733C60.425 79.306 60.3918 79.3435 60.3452 79.3716V79.3622C60.1325 79.5121 59.8999 79.6432 59.6207 79.7181C58.6236 80.0038 45.1433 81.1323 34.7472 80.9872C24.3511 81.1323 10.8774 80.0038 9.87368 79.7181C9.56126 79.6292 9.28873 79.4746 9.05608 79.2873C9.04279 79.2779 9.0162 79.2592 9.00291 79.2498C8.94308 79.1983 8.8899 79.1421 8.83008 79.0906C8.81014 79.0672 8.7902 79.0485 8.77026 79.0298C8.71708 78.9782 8.67055 78.9174 8.61737 78.8612C8.60408 78.8331 8.57749 78.8097 8.55755 78.7909C8.51767 78.7347 8.47114 78.6739 8.43125 78.6177C8.41796 78.5896 8.39802 78.5662 8.37808 78.5381C8.33819 78.4772 8.30496 78.4163 8.27172 78.3554C8.25843 78.3273 8.23849 78.3039 8.22519 78.2758L8.12549 78.0932C8.11219 78.0651 8.0989 78.037 8.0856 78.0089C8.05237 77.948 8.02578 77.8871 8.00584 77.831C7.99254 77.8029 7.97925 77.7748 7.96596 77.7467C7.95266 77.7186 7.94601 77.6905 7.93272 77.6624C7.91943 77.6296 7.90613 77.5968 7.89949 77.5734C7.88619 77.55 7.87954 77.5219 7.86625 77.4985C7.85296 77.4423 7.82637 77.3861 7.81307 77.3346C7.81307 77.3112 7.79978 77.2878 7.79313 77.2643C7.77984 77.2128 7.7599 77.1613 7.75325 77.1145C7.73995 77.0911 7.73995 77.0723 7.73331 77.0536C7.72001 77.0068 7.71337 76.9646 7.70007 76.9225C7.70007 76.9038 7.68678 76.8897 7.68678 76.871C7.67348 76.8335 7.66684 76.7961 7.66019 76.7633C7.66019 76.7445 7.66019 76.7352 7.64689 76.7164C7.64689 76.6883 7.6336 76.6602 7.6336 76.6368C7.6336 76.6228 7.6336 76.6134 7.6336 76.5994C7.6336 76.59 7.6336 76.5713 7.6336 76.5619C7.6336 76.5432 7.6336 76.5338 7.6336 76.5338L7.27466 72.7642L7.20819 72.0664L1.02637 6.56787C1.12607 6.78796 1.27231 6.99869 1.47172 7.186C1.49167 7.20005 1.51161 7.21878 1.5382 7.23751L1.55149 7.24688C1.72431 7.378 1.90379 7.49975 2.07661 7.63087C2.07661 7.63087 2.07661 7.63087 2.08991 7.64024C2.08991 7.64024 2.1032 7.64024 2.1032 7.6496C2.11649 7.6496 2.19626 7.68706 2.29597 7.73389L8.60408 70.3665C8.7902 72.2116 10.5251 73.799 13.0111 74.3938C21.5327 76.4167 37.9179 78.8986 56.7292 74.5108C59.2485 73.9255 61.0232 72.3333 61.216 70.4696L67.5706 7.32649C67.8166 7.22815 68.0559 7.11576 68.2553 6.96591C68.3018 6.93781 68.355 6.90503 68.4015 6.87694V6.87225Z" fill="#A7C0FF"/>
<path opacity="0.33" d="M30.593 78.9267C29.6956 79.3435 28.5722 79.3997 27.5021 79.4324C23.208 79.5542 18.9007 79.4558 14.6266 79.1421C12.6856 78.9969 10.6982 78.8003 8.97655 78.1493C8.60431 78.0089 8.25202 77.845 7.91301 77.667C7.89972 77.6342 7.88642 77.6015 7.87978 77.578C7.86648 77.5546 7.85984 77.5265 7.84654 77.5031C7.83325 77.4469 7.80666 77.3907 7.79336 77.3392C7.79336 77.3158 7.78007 77.2924 7.77342 77.269C7.76013 77.2175 7.74019 77.166 7.73354 77.1191C7.72025 77.0957 7.72025 77.077 7.7136 77.0582C7.7003 77.0114 7.69366 76.9693 7.68036 76.9271C7.68036 76.9084 7.66707 76.8943 7.66707 76.8756C7.65377 76.8382 7.64713 76.8007 7.64048 76.7679C7.64048 76.7492 7.64048 76.7398 7.62719 76.7211C7.62719 76.693 7.61389 76.6649 7.61389 76.6415C7.61389 76.6274 7.61389 76.6181 7.61389 76.604C7.61389 76.5946 7.61389 76.5759 7.61389 76.5666C7.61389 76.5478 7.61389 76.5385 7.61389 76.5385L7.25495 72.7688L7.18848 72.071C7.42113 72.263 7.66042 72.4457 7.91966 72.6236C10.2196 74.2345 13.1842 75.3256 16.2352 76.0561C20.5957 77.1051 25.2155 77.5078 29.6823 78.3086C30.141 78.3928 30.706 78.6036 30.5996 78.9267H30.593Z" fill="#A7FFFF"/>
<path opacity="0.33" d="M62.2662 72.2678L62.1931 73.0592L61.8673 76.5339C61.8673 76.5339 61.8673 76.5432 61.8673 76.5573C61.8673 76.5666 61.8673 76.576 61.8673 76.5854C61.8673 76.5994 61.8673 76.6088 61.8673 76.6275C61.8673 76.6416 61.8673 76.6603 61.8541 76.6837C61.8541 76.6978 61.8541 76.7165 61.8408 76.7352C61.8408 76.7633 61.8275 76.7867 61.8208 76.8195C61.8208 76.8383 61.8075 76.8617 61.8075 76.8851C61.8075 76.9179 61.7942 76.9553 61.7809 76.9928C61.7809 77.0162 61.7676 77.0396 61.7676 77.063C61.7543 77.1052 61.7477 77.1426 61.7278 77.1895C61.7278 77.2035 61.7145 77.2222 61.7145 77.241C61.6879 77.3346 61.648 77.433 61.6148 77.536C61.6148 77.5641 61.6015 77.5922 61.5882 77.6203C61.5749 77.6671 61.5483 77.7093 61.5283 77.7608C61.5283 77.7748 61.5151 77.7935 61.5084 77.8123C61.2625 77.934 61.0099 78.0464 60.744 78.1447C59.0224 78.8003 57.0349 78.997 55.0939 79.1375C50.8198 79.4466 46.5125 79.5496 42.2118 79.4278C41.1416 79.3997 40.0183 79.3389 39.1209 78.9221C39.0079 78.599 39.5796 78.3883 40.0382 78.304C44.5051 77.5032 49.1248 77.1005 53.4853 76.0515C56.5297 75.3163 59.4943 74.2299 61.8009 72.619C61.9604 72.5066 62.1266 72.3896 62.2795 72.2678H62.2662Z" fill="#A7FFFF"/>
<path d="M68.4616 6.24007C68.4616 6.29158 68.4616 6.34309 68.4483 6.38992C67.9365 9.21366 53.0403 11.4848 34.7341 11.4848C16.428 11.4848 1.52512 9.21834 1.01329 6.38992C1 6.33841 1 6.2869 1 6.24007C1 3.34609 16.1022 1 34.7275 1C53.3527 1 68.4549 3.34609 68.4549 6.24007H68.4616Z" stroke="white" stroke-width="0.81" stroke-miterlimit="10"/>
<path d="M34.7275 1C16.1022 1 1 3.34609 1 6.24007C1 6.29158 1 6.34309 1.01329 6.38992L7.24164 72.7641L7.60059 76.5338C7.60059 76.5338 7.93959 78.8752 9.5349 79.5964C9.6346 79.6479 9.7476 79.6853 9.86061 79.7181C10.8643 80.0038 24.338 81.1323 34.7341 80.9872C45.1302 81.1323 58.6106 80.0038 59.6076 79.7181C59.8802 79.6432 60.1194 79.5214 60.3322 79.3669C61.5885 78.4725 61.8743 76.5291 61.8743 76.5291L62.2 73.0545L68.4416 6.38992C68.4549 6.33841 68.4549 6.2869 68.4549 6.24007C68.4616 3.34609 53.3593 1 34.7275 1Z" stroke="white" stroke-width="0.81" stroke-miterlimit="10"/>
<path opacity="0.19" d="M65.218 8.4832L60.1596 72.6612C59.3619 73.5135 58.1654 74.1737 56.7296 74.5062C54.237 75.0869 51.7775 75.5505 49.3779 75.9064L53.6653 10.5764C63.3967 10.3563 65.218 8.47852 65.218 8.47852V8.4832Z" fill="#9CCAFF"/>
<path opacity="0.19" d="M20.011 75.7565C18.1697 75.4661 16.4947 75.1524 14.9991 74.8339C14.3011 74.6841 13.6364 74.5389 13.0182 74.3891C12.7457 74.3235 12.4931 74.2486 12.2405 74.1596L5.46045 8.84839L8.97677 9.45247L15.0855 10.5061L20.011 75.7611V75.7565Z" fill="#9CCAFF"/>
<path opacity="0.19" d="M14.9991 74.8339C14.3011 74.6841 13.6364 74.5389 13.0182 74.3891C12.7457 74.3235 12.4931 74.2486 12.2405 74.1596L5.46045 8.84839L8.97677 9.45247C9.30248 11.9203 13.5433 58.3738 14.9991 74.8339Z" fill="#9CCAFF"/>
</svg>
