<svg width="21" height="21" viewBox="0 0 21 21" fill="none" xmlns="http://www.w3.org/2000/svg">
<g clip-path="url(#clip0_225_997)">
<rect width="21" height="21" fill="white"/>
<path d="M17.6962 3.32787C15.7383 1.37001 13.1351 0.291748 10.3661 0.291748C7.59719 0.291748 4.99413 1.37001 3.03612 3.32787C1.07826 5.28588 0 7.88909 0 10.658C0 13.4268 1.07826 16.0301 3.03612 17.9879C4.99413 19.9458 7.59735 21.024 10.3662 21.024C13.1351 21.024 15.7383 19.9458 17.6962 17.9879C19.654 16.0301 20.7323 13.4268 20.7323 10.658C20.7323 7.88909 19.654 5.28588 17.6962 3.32787Z" fill="#B4B1FF"/>
<path d="M10.3662 0.291748V21.024C13.1351 21.024 15.7381 19.9458 17.696 17.9879C19.6538 16.0301 20.7321 13.4268 20.7321 10.658C20.7321 7.88909 19.6538 5.28588 17.696 3.32787C15.7381 1.37017 13.1351 0.291908 10.3662 0.291748Z" fill="#807BFF"/>
<path d="M10.3659 3.60547C6.47729 3.60547 3.31348 6.76912 3.31348 10.6579C3.31348 14.5465 6.47729 17.7104 10.3659 17.7104C14.2547 17.7104 17.4185 14.5465 17.4185 10.6579C17.4185 6.76912 14.2547 3.60547 10.3659 3.60547Z" fill="white"/>
<path d="M10.3662 3.60547V17.7104C14.2548 17.7102 17.4185 14.5465 17.4185 10.6579C17.4185 6.76928 14.2548 3.60563 10.3662 3.60547Z" fill="#C8FDFA"/>
<path d="M10.3659 7.12378C8.41738 7.12378 6.83203 8.70913 6.83203 10.6577C6.83203 12.6064 8.41738 14.1918 10.3659 14.1918C12.3147 14.1918 13.9 12.6064 13.9 10.6577C13.9 8.70913 12.3147 7.12378 10.3659 7.12378Z" fill="#807BFF"/>
<path d="M10.3662 7.12378V14.1918C12.3148 14.1916 13.9 12.6064 13.9 10.6579C13.9 8.70929 12.3148 7.12394 10.3662 7.12378Z" fill="#807BFF"/>
<path d="M15.409 5.68603C15.1672 5.44074 14.7723 5.43802 14.527 5.67978L9.92846 10.2138C9.68317 10.4555 9.68045 10.8503 9.92221 11.0956C10.0443 11.2195 10.2052 11.2815 10.3663 11.2815C10.5245 11.2815 10.6826 11.2217 10.8041 11.102L15.4028 6.56803C15.6481 6.3261 15.6508 5.93132 15.409 5.68603Z" fill="#45686E"/>
<path d="M14.5267 5.67978L10.3662 9.78183V11.2815C10.5243 11.2815 10.6823 11.2217 10.8038 11.102L15.4025 6.56803C15.6478 6.3261 15.6505 5.93132 15.4087 5.68603C15.167 5.44074 14.772 5.43802 14.5267 5.67978Z" fill="#2A3B3B"/>
<path d="M20.9655 3.95191C20.8884 3.72936 20.6925 3.56915 20.459 3.5379L17.8201 3.18478L17.3808 0.561707C17.342 0.330032 17.1762 0.139694 16.952 0.069519C16.7277 -0.000656188 16.4831 0.0610275 16.3192 0.229416L14.0027 2.6056C13.864 2.74787 13.8015 2.94782 13.8342 3.14377L14.3496 6.22667C14.3948 6.4968 14.6108 6.70572 14.8822 6.74209L17.9803 7.15625C18.0079 7.15994 18.0356 7.1617 18.063 7.1617C18.2302 7.1617 18.3921 7.09425 18.5103 6.97248L20.8237 4.59053C20.9877 4.4215 21.0427 4.17445 20.9655 3.95191Z" fill="#B4B1FF"/>
</g>
<defs>
<clipPath id="clip0_225_997">
<rect width="21" height="21" fill="white"/>
</clipPath>
</defs>
</svg>
