<svg width="20" height="20" viewBox="0 0 20 20" fill="none" xmlns="http://www.w3.org/2000/svg">
<path d="M11.175 16.2508C10.8299 16.2508 10.55 16.5306 10.55 16.8758C10.55 17.2209 10.8299 17.5008 11.175 17.5008H16.175C16.5202 17.5008 16.8 17.2209 16.8 16.8758C16.8 16.5306 16.5202 16.2508 16.175 16.2508H11.175Z" fill="#4169E1"/>
<path d="M11.8368 3.81284L11.9118 3.85617C12.5603 4.23051 13.101 4.54267 13.4969 4.84821C13.9148 5.1707 14.2465 5.54087 14.3854 6.05935C14.5243 6.57784 14.4222 7.06425 14.2215 7.55249C14.0822 7.89138 13.8774 8.2722 13.6306 8.70659L13.1012 8.39192L13.0944 8.38792L7.3233 5.05598L6.78359 4.73789C7.03367 4.31198 7.25899 3.94821 7.48082 3.66075C7.80331 3.24285 8.17347 2.91116 8.69196 2.77223C9.21045 2.6333 9.69686 2.73548 10.1851 2.93614C10.6477 3.12625 11.1884 3.43845 11.8368 3.81284Z" fill="#4169E1"/>
<path d="M6.15741 5.81978L3.2591 10.8397C3.01094 11.2687 2.81472 11.6079 2.74203 11.9938C2.66933 12.3796 2.72865 12.767 2.80368 13.2569L2.82389 13.3893C2.96238 14.2987 3.07653 15.0484 3.2487 15.6168C3.42876 16.2114 3.70555 16.726 4.24995 17.0403C4.79434 17.3546 5.37839 17.337 5.9833 17.1957C6.56169 17.0605 7.26796 16.7846 8.12482 16.4498L8.24961 16.4011C8.71139 16.2211 9.07651 16.0788 9.37431 15.8229C9.6721 15.567 9.86776 15.2275 10.1152 14.7981L13.0067 9.78985L12.4659 9.46847L6.69102 6.13431L6.15741 5.81978Z" fill="#4169E1"/>
</svg>
