<svg width="68" height="116" viewBox="0 0 68 116" fill="none" xmlns="http://www.w3.org/2000/svg">
<g clip-path="url(#clip0_225_926)">
<path d="M64.9487 36.984C64.736 37.9889 63.9915 38.6388 63.247 39.3289C61.6251 40.8229 59.6975 41.9417 57.7366 42.94C44.0036 49.9277 27.1731 51.2543 13.1477 44.8829C10.7348 43.7841 8.39502 42.4509 6.40753 40.6688C5.62317 39.9653 3.62903 38.344 3.42962 37.2319C3.18368 35.9254 5.92229 36.2269 6.813 36.0125C6.91271 35.9857 7.01906 35.9656 7.11877 35.9388C8.67419 35.577 10.2695 35.3559 11.8582 35.2085C22.5401 34.1902 33.4347 36.2604 43.9837 34.2572C49.102 33.2857 54.1671 31.3495 59.3518 31.8252C60.7544 31.9525 62.1835 32.2741 63.3135 33.1182C63.3999 33.1852 63.4797 33.2455 63.5594 33.3259C64.5565 34.2103 65.2146 35.6976 64.942 36.9773L64.9487 36.984Z" fill="#3291D9"/>
<g style="mix-blend-mode:multiply" opacity="0.5">
<path d="M64.9487 36.9841C64.736 37.989 63.9915 38.6389 63.247 39.3289C61.6251 40.823 59.6975 41.9418 57.7366 42.9401C44.0036 49.9278 27.1731 51.2544 13.1477 44.883C10.7348 43.7842 8.39502 42.451 6.40753 40.6689C5.62317 39.9654 3.62903 38.3441 3.42962 37.2319C3.18368 35.9255 5.92229 36.227 6.813 36.0126C6.91271 35.9858 7.01906 35.9657 7.11877 35.9389C7.6173 36.026 8.11584 36.1064 8.58778 36.16C11.0206 36.4481 13.4468 36.7228 15.873 36.9841C18.605 37.2788 21.337 37.5535 24.0756 37.7947C37.3233 38.9605 51.2423 39.262 63.2404 33.4801C63.3467 33.4332 63.4531 33.3796 63.5661 33.3193C64.5631 34.2037 65.2212 35.691 64.9487 36.9707V36.9841Z" fill="#3291D9"/>
</g>
<path d="M64.9884 36.6558L63.8784 52.4737L60.4883 100.664C60.3022 103.331 58.5208 105.609 56.0015 106.446C37.1902 112.724 20.8051 109.173 12.2835 106.279C9.79079 105.428 8.05589 103.157 7.87642 100.517L3.83497 43.0406L3.42285 37.2386C4.9251 37.4128 6.434 37.8081 7.92295 37.9689C10.728 38.257 13.5531 38.391 16.3515 38.6188C21.6293 39.0475 26.8872 39.7108 32.1716 39.9386C41.8831 40.354 51.7274 39.8984 61.2262 37.6473C62.4891 37.3458 63.7388 37.0175 64.9818 36.6558H64.9884Z" fill="#68CEFF"/>
<g style="mix-blend-mode:multiply" opacity="0.5">
<path d="M63.8784 52.4737L60.4883 100.664C60.3022 103.331 58.5208 105.609 56.0015 106.446C37.1902 112.724 20.805 109.173 12.2834 106.279C9.79078 105.428 8.05588 103.157 7.87641 100.517L3.83496 43.0405C5.56986 49.8541 6.95246 56.7615 7.96282 63.7224C8.78042 69.3435 9.37201 75.0114 10.8277 80.4984C12.2901 85.9788 14.6897 91.3452 18.658 95.3784C22.6197 99.4116 28.3163 101.958 33.8999 101.214C38.2205 100.638 42.129 98.1722 45.1401 94.9965C48.1513 91.8209 50.3648 87.9686 52.3523 84.0627C57.4506 74.06 61.3259 63.4277 63.8784 52.4804V52.4737Z" fill="#68CEFF"/>
</g>
<g style="mix-blend-mode:screen" opacity="0.5">
<path d="M39.1776 41.9953C32.1848 42.0355 25.212 41.3723 18.2657 40.5482C15.8728 40.2668 13.4399 39.9586 11.0669 40.3874C9.91695 40.5951 8.73377 41.0105 7.96935 41.9015C7.17169 42.8261 6.93904 44.1392 7.09858 45.3519C7.26475 46.5645 7.78323 47.6968 8.36153 48.7754C10.708 53.1637 14.1578 57.083 18.618 59.247C22.1344 60.9554 26.0894 61.4981 29.9912 61.6991C33.368 61.8666 36.8178 61.7795 40.0417 60.7611C44.0167 59.5016 47.4333 56.882 50.4843 54.0146C53.5353 51.1471 56.3005 47.9782 59.4978 45.2782C60.3752 44.5412 61.2992 43.8177 61.8908 42.8328C62.3494 42.0824 63.0341 39.4495 61.4986 39.4495C60.6677 39.4495 59.7105 39.8246 58.8929 39.9921C58.0088 40.1663 57.1181 40.3338 56.2274 40.4879C52.5981 41.111 48.9422 41.5465 45.273 41.7877C43.2456 41.9216 41.2182 41.9886 39.1842 42.002L39.1776 41.9953Z" fill="#9CF1FF"/>
</g>
<g style="mix-blend-mode:screen" opacity="0.5">
<path d="M20.207 42.0422C18.1265 41.8077 15.9595 41.5665 13.9787 42.2499C13.4668 42.4308 12.9018 42.7658 12.862 43.3085C12.8221 43.8712 13.3605 44.2933 13.8457 44.5747C17.7077 46.8325 22.1546 47.958 26.6082 48.2461C31.0618 48.5342 35.5419 48.0049 39.9157 47.1139C42.2489 46.6382 44.6019 46.0419 46.6958 44.8762C47.2209 44.5814 48.3841 43.9047 47.4336 43.3889C46.6492 42.9668 45.5525 43.1477 44.7149 43.2013C39.4571 43.5296 34.1859 43.3353 28.9413 42.9132C26.0232 42.6787 23.1118 42.3705 20.207 42.0355V42.0422Z" fill="#9CF1FF"/>
</g>
<g style="mix-blend-mode:screen" opacity="0.5">
<path d="M50.7568 42.8931C50.4709 43.0137 50.1851 43.1611 49.9857 43.4023C49.7863 43.6435 49.6932 43.9986 49.8395 44.2732C50.0256 44.6216 50.4842 44.702 50.8764 44.7221C51.4414 44.7489 52.0131 44.7489 52.5847 44.7154C53.5486 44.6551 54.5124 44.501 55.4164 44.1661C55.9482 43.9718 57.3441 43.4693 57.477 42.8127C57.6897 41.7073 54.7384 41.9753 54.1933 42.0423C53.0234 42.1896 51.8469 42.4308 50.7568 42.8998V42.8931Z" fill="#9CF1FF"/>
</g>
<path opacity="0.19" d="M33.9999 1.27466C15.3747 1.27466 0.272461 4.6312 0.272461 8.7716C0.272461 8.8453 0.272461 8.91899 0.285755 8.98599L6.5141 103.947L6.87305 109.34C6.87305 109.34 7.21205 112.69 8.80736 113.722C8.90706 113.796 9.02007 113.849 9.13307 113.896C10.1368 114.305 23.6105 115.92 34.0066 115.712C44.4027 115.92 57.883 114.305 58.8801 113.896C59.1526 113.789 59.3919 113.615 59.6046 113.394C60.8609 112.114 61.1467 109.334 61.1467 109.334L61.4725 104.363L67.7141 8.98599C67.7274 8.91229 67.7274 8.8386 67.7274 8.7716C67.734 4.6312 52.6318 1.27466 33.9999 1.27466Z" fill="#9CCAFF"/>
<path opacity="0.33" d="M67.674 9.67596L61.5387 103.237L61.4656 104.369L61.1399 109.34C61.1399 109.34 61.1399 109.354 61.1399 109.374C61.1399 109.387 61.1399 109.401 61.1399 109.414C61.1399 109.434 61.1399 109.448 61.1399 109.474C61.1399 109.494 61.1399 109.521 61.1266 109.555C61.1266 109.575 61.1266 109.602 61.1133 109.628C61.1133 109.669 61.1 109.702 61.0934 109.749C61.0934 109.776 61.0801 109.809 61.0801 109.843C61.0801 109.89 61.0668 109.943 61.0535 109.997C61.0535 110.03 61.0402 110.064 61.0402 110.097C61.0269 110.158 61.0202 110.211 61.0003 110.278C61.0003 110.298 60.987 110.325 60.987 110.352C60.9604 110.486 60.9205 110.627 60.8873 110.774C60.8873 110.814 60.874 110.855 60.8607 110.895C60.8474 110.962 60.8208 111.022 60.8009 111.096C60.8009 111.116 60.7876 111.143 60.7809 111.169C60.7809 111.196 60.7676 111.223 60.761 111.25C60.7411 111.317 60.7211 111.377 60.6945 111.451C60.6746 111.504 60.6546 111.558 60.6347 111.618C60.6148 111.685 60.5882 111.746 60.5616 111.806C60.535 111.866 60.5151 111.926 60.4885 111.993C60.4685 112.054 60.4419 112.114 60.4153 112.174L60.3156 112.369C60.2891 112.422 60.2691 112.469 60.2425 112.529C60.1827 112.643 60.1162 112.751 60.0498 112.858C60.0365 112.878 60.0232 112.898 60.0099 112.918C59.95 113.005 59.8836 113.092 59.8238 113.166C59.7972 113.199 59.7706 113.233 59.744 113.26C59.6975 113.307 59.6642 113.36 59.6177 113.4V113.387C59.405 113.601 59.1723 113.789 58.8932 113.896C57.8961 114.305 44.4157 115.919 34.0196 115.712C23.6236 115.919 10.1499 114.305 9.14614 113.896C8.83372 113.769 8.56119 113.548 8.32854 113.28C8.31525 113.266 8.28866 113.24 8.27537 113.226C8.21554 113.153 8.16237 113.072 8.10254 112.998C8.0826 112.965 8.06266 112.938 8.04272 112.911C7.98954 112.838 7.94301 112.751 7.88983 112.67C7.87654 112.63 7.84995 112.596 7.83001 112.57C7.79013 112.489 7.7436 112.402 7.70372 112.322C7.69042 112.282 7.67048 112.248 7.65054 112.208C7.61066 112.121 7.57742 112.034 7.54418 111.947C7.53089 111.906 7.51095 111.873 7.49765 111.833L7.39795 111.571C7.38465 111.531 7.37136 111.491 7.35807 111.451C7.32483 111.364 7.29824 111.277 7.2783 111.196C7.26501 111.156 7.25171 111.116 7.23842 111.076C7.22512 111.035 7.21848 110.995 7.20518 110.955C7.19189 110.908 7.17859 110.861 7.17195 110.828C7.15865 110.794 7.152 110.754 7.13871 110.721C7.12542 110.64 7.09883 110.56 7.08553 110.486C7.08553 110.453 7.07224 110.419 7.06559 110.386C7.0523 110.312 7.03236 110.238 7.02571 110.171C7.01241 110.138 7.01242 110.111 7.00577 110.084C6.99247 110.017 6.98583 109.957 6.97253 109.896C6.97253 109.87 6.95924 109.85 6.95924 109.823C6.94594 109.769 6.9393 109.716 6.93265 109.669C6.93265 109.642 6.93265 109.628 6.91936 109.602C6.91936 109.561 6.90606 109.521 6.90606 109.488C6.90606 109.468 6.90606 109.454 6.90606 109.434C6.90606 109.421 6.90606 109.394 6.90606 109.381C6.90606 109.354 6.90606 109.34 6.90606 109.34L6.54712 103.947L6.48065 102.949L0.298828 9.24048C0.398535 9.55536 0.544771 9.85685 0.744185 10.1248C0.764126 10.1449 0.784068 10.1717 0.810656 10.1985L0.82395 10.2119C0.996775 10.3995 1.17625 10.5737 1.34907 10.7613C1.34907 10.7613 1.34907 10.7613 1.36237 10.7747C1.36237 10.7747 1.37566 10.7747 1.37566 10.7881C1.38896 10.7881 1.46872 10.8417 1.56843 10.9087L7.87654 100.517C8.06266 103.157 9.79756 105.428 12.2836 106.279C20.8052 109.173 37.1903 112.724 56.0017 106.446C58.5209 105.609 60.2957 103.331 60.4885 100.664L66.8431 10.3258C67.0891 10.1851 67.3283 10.0243 67.5278 9.80995C67.5743 9.76975 67.6275 9.72286 67.674 9.68266V9.67596Z" fill="#A7C0FF"/>
<path opacity="0.33" d="M29.8654 112.764C28.9681 113.36 27.8447 113.441 26.7745 113.487C22.4805 113.662 18.1732 113.521 13.8991 113.072C11.9581 112.864 9.97061 112.583 8.24901 111.652C7.87677 111.451 7.52448 111.216 7.18547 110.962C7.17218 110.915 7.15888 110.868 7.15224 110.834C7.13894 110.801 7.1323 110.761 7.119 110.727C7.10571 110.647 7.07912 110.566 7.06582 110.493C7.06582 110.459 7.05253 110.426 7.04588 110.392C7.03259 110.319 7.01265 110.245 7.006 110.178C6.99271 110.144 6.99271 110.118 6.98606 110.091C6.97277 110.024 6.96612 109.963 6.95282 109.903C6.95282 109.876 6.93953 109.856 6.93953 109.829C6.92624 109.776 6.91959 109.722 6.91294 109.675C6.91294 109.649 6.91294 109.635 6.89965 109.608C6.89965 109.568 6.88635 109.528 6.88635 109.494C6.88635 109.474 6.88635 109.461 6.88635 109.441C6.88635 109.427 6.88635 109.401 6.88635 109.387C6.88635 109.36 6.88635 109.347 6.88635 109.347L6.52741 103.954L6.46094 102.956C6.69359 103.23 6.93288 103.492 7.19212 103.746C9.49202 106.051 12.4566 107.612 15.5077 108.657C19.8682 110.158 24.4879 110.734 28.9548 111.88C29.4134 112 29.9784 112.302 29.8721 112.764H29.8654Z" fill="#A7FFFF"/>
<path opacity="0.33" d="M61.5386 103.237L61.4655 104.369L61.1398 109.34C61.1398 109.34 61.1398 109.354 61.1398 109.374C61.1398 109.387 61.1398 109.401 61.1398 109.414C61.1398 109.434 61.1398 109.448 61.1398 109.474C61.1398 109.495 61.1398 109.521 61.1265 109.555C61.1265 109.575 61.1265 109.602 61.1132 109.629C61.1132 109.669 61.0999 109.702 61.0933 109.749C61.0933 109.776 61.08 109.809 61.08 109.843C61.08 109.89 61.0667 109.943 61.0534 109.997C61.0534 110.031 61.0401 110.064 61.0401 110.098C61.0268 110.158 61.0202 110.211 61.0002 110.278C61.0002 110.299 60.9869 110.325 60.9869 110.352C60.9603 110.486 60.9205 110.627 60.8872 110.774C60.8872 110.814 60.8739 110.855 60.8606 110.895C60.8473 110.962 60.8207 111.022 60.8008 111.096C60.8008 111.116 60.7875 111.143 60.7809 111.169C60.5349 111.344 60.2823 111.504 60.0164 111.645C58.2948 112.583 56.3074 112.864 54.3664 113.065C50.0923 113.508 45.785 113.655 41.4843 113.481C40.4141 113.441 39.2907 113.354 38.3934 112.757C38.2804 112.295 38.852 111.994 39.3107 111.873C43.7775 110.727 48.3973 110.151 52.7578 108.65C55.8022 107.599 58.7668 106.044 61.0733 103.74C61.2329 103.579 61.399 103.411 61.5519 103.237H61.5386Z" fill="#A7FFFF"/>
<path d="M67.734 8.7716C67.734 8.8453 67.734 8.91899 67.7207 8.98599C67.2089 13.0259 52.3127 16.2752 34.0066 16.2752C15.7004 16.2752 0.797583 13.0326 0.285755 8.98599C0.272461 8.91229 0.272461 8.8386 0.272461 8.7716C0.272461 4.6312 15.3747 1.27466 33.9999 1.27466C52.6251 1.27466 67.7274 4.6312 67.7274 8.7716H67.734Z" stroke="white" stroke-width="0.81" stroke-miterlimit="10"/>
<path d="M33.9999 1.27466C15.3747 1.27466 0.272461 4.6312 0.272461 8.7716C0.272461 8.8453 0.272461 8.91899 0.285755 8.98599L6.5141 103.947L6.87305 109.341C6.87305 109.341 7.21205 112.69 8.80736 113.722C8.90706 113.796 9.02007 113.849 9.13307 113.896C10.1368 114.305 23.6105 115.92 34.0066 115.712C44.4027 115.92 57.883 114.305 58.8801 113.896C59.1526 113.789 59.3919 113.615 59.6046 113.394C60.8609 112.114 61.1467 109.334 61.1467 109.334L61.4725 104.363L67.7141 8.98599C67.7274 8.91229 67.7274 8.8386 67.7274 8.7716C67.734 4.6312 52.6318 1.27466 33.9999 1.27466Z" stroke="white" stroke-width="0.81" stroke-miterlimit="10"/>
<path opacity="0.19" d="M64.4905 11.9808L59.432 103.8C58.6344 105.019 57.4379 105.964 56.0021 106.44C53.5094 107.27 51.05 107.934 48.6504 108.443L52.9378 14.9756C62.6692 14.6607 64.4905 11.9741 64.4905 11.9741V11.9808Z" fill="#9CCAFF"/>
<path opacity="0.19" d="M19.2834 108.228C17.4422 107.813 15.7671 107.364 14.2715 106.909C13.5736 106.694 12.9089 106.487 12.2907 106.272C12.0181 106.178 11.7656 106.071 11.513 105.944L4.73291 12.5034L8.24923 13.3677L14.3579 14.8751L19.2834 108.235V108.228Z" fill="#9CCAFF"/>
<path opacity="0.19" d="M14.2715 106.909C13.5736 106.694 12.9089 106.487 12.2907 106.272C12.0181 106.178 11.7656 106.071 11.513 105.944L4.73291 12.5034L8.24923 13.3677C8.57494 16.8984 12.8158 83.3592 14.2715 106.909Z" fill="#9CCAFF"/>
</g>
<defs>
<clipPath id="clip0_225_926">
<rect width="68" height="116" fill="white"/>
</clipPath>
</defs>
</svg>
