<svg width="24" height="24" viewBox="0 0 24 24" fill="none" xmlns="http://www.w3.org/2000/svg">
<circle cx="12" cy="12" r="12" fill="#4169E1"/>
<path fill-rule="evenodd" clip-rule="evenodd" d="M10.1534 6.62507C10.2703 6.6267 10.3835 6.66608 10.4762 6.73735C10.5688 6.80862 10.6359 6.90794 10.6675 7.02049L12.657 14.0947L13.7013 11.3099C13.74 11.2067 13.8093 11.1178 13.8999 11.0549C13.9905 10.9921 14.0981 10.9584 14.2083 10.9584H15.8333C15.977 10.9584 16.1148 11.0155 16.2164 11.1171C16.3179 11.2186 16.375 11.3564 16.375 11.5001C16.375 11.6437 16.3179 11.7815 16.2164 11.8831C16.1148 11.9847 15.977 12.0417 15.8333 12.0417H14.5837L13.0903 16.0235C13.0503 16.1304 12.9774 16.222 12.8823 16.285C12.7871 16.3481 12.6744 16.3794 12.5603 16.3746C12.4462 16.3698 12.3366 16.3291 12.2471 16.2583C12.1575 16.1874 12.0926 16.0901 12.0617 15.9802L10.1188 9.07016L9.30842 11.6615C9.27403 11.7717 9.20535 11.868 9.1124 11.9364C9.01944 12.0048 8.90707 12.0417 8.79167 12.0417H7.16667C7.02301 12.0417 6.88523 11.9847 6.78365 11.8831C6.68207 11.7815 6.625 11.6437 6.625 11.5001C6.625 11.3564 6.68207 11.2186 6.78365 11.1171C6.88523 11.0155 7.02301 10.9584 7.16667 10.9584H8.39354L9.62854 7.00532C9.66339 6.89364 9.73346 6.79625 9.82827 6.7277C9.92307 6.65916 10.0375 6.62316 10.1545 6.62507H10.1534Z" fill="white"/>
</svg>
