<svg width="393" height="852" viewBox="0 0 393 852" fill="none" xmlns="http://www.w3.org/2000/svg">
<g clip-path="url(#clip0_8_810)">
<rect width="393" height="852" fill="#D1EAFE"/>
<path d="M615.158 423.876L583.595 437.683L576.17 441.361C558.74 449.997 539.55 454.491 520.098 454.491C496.756 454.491 473.87 448.022 453.982 435.803L390.733 396.944C372.919 386 353.06 378.805 332.37 375.799C306.198 371.998 279.488 375.013 254.823 384.555L96.1054 445.954C38.8961 468.085 -24.4353 468.509 -81.9363 447.148L-189.712 407.11C-198.649 403.79 -208.642 405.021 -216.506 410.411C-222.656 414.626 -226.97 421.026 -228.57 428.309L-251.168 531.171C-291.661 715.488 -151.326 890 37.386 890H564.824C742.479 890 881.613 737.155 864.965 560.281L854.651 450.706C852.295 425.678 838.345 403.201 816.962 389.982C797.201 377.766 773.115 374.715 750.932 381.619L615.158 423.876Z" fill="url(#paint0_linear_8_810)"/>
<path d="M386.717 432.268L385.298 433.006C366.052 443.005 344.682 448.225 322.993 448.225C281.356 448.225 240.424 437.474 204.162 417.012L164.019 394.36C149.487 386.16 133.653 380.518 117.21 377.681C88.2133 372.678 58.3817 376.576 31.6442 388.861L-118.234 457.725C-173.262 483.009 -236.49 483.488 -291.896 459.041L-394.495 413.77C-404.23 409.475 -415.551 410.999 -423.803 417.717C-429.015 421.96 -432.548 427.918 -433.771 434.527L-455.564 552.352C-495.84 770.097 -328.69 971 -107.251 971H269.652C480.058 971 645.785 791.62 629.162 581.872L618.976 453.332C617.165 430.484 605.506 409.554 587.032 395.989C565.671 380.305 537.861 376.396 513.005 385.585L386.717 432.268Z" fill="url(#paint1_linear_8_810)"/>
<path d="M364.749 206.784C364.808 206.122 364.868 205.464 364.968 204.807C366.036 197.752 371.023 144.716 293.55 78.0138C210.286 6.32496 119.292 86.8449 103.574 107.892C87.8556 128.938 83.2768 161.259 71.1445 139.991C63.6439 126.843 83.1939 110.379 55.5022 117.256C37.735 121.669 4.73462 160.714 31.7866 227.801C58.8387 294.888 134.82 346.066 207.841 342.333C301.742 337.533 357.033 278.971 352.644 274.617C348.255 270.263 313.281 283.252 320.965 274.205C328.529 265.299 362.543 231.676 364.749 206.784Z" fill="#63BBFF"/>
<path opacity="0.8" d="M364.749 206.784C364.808 206.122 364.868 205.464 364.968 204.807C366.036 197.752 371.023 144.716 293.55 78.0138C210.286 6.32496 119.292 86.8449 103.574 107.892C87.8556 128.938 83.2768 161.259 71.1445 139.991C63.6439 126.843 83.1939 110.379 55.5022 117.256C37.735 121.669 4.73462 160.714 31.7866 227.801C58.8387 294.888 134.82 346.066 207.841 342.333C301.742 337.533 357.033 278.971 352.644 274.617C348.255 270.263 313.281 283.252 320.965 274.205C328.529 265.299 362.543 231.676 364.749 206.784Z" fill="white"/>
<path d="M33.2524 343.326H361.894" stroke="#263238" stroke-miterlimit="10" stroke-linecap="round" stroke-linejoin="round"/>
<path d="M301.57 162.978C301.57 162.978 296.941 155.017 285.832 154.619C274.723 154.221 270.557 168.153 267.78 168.948C265.002 169.745 256.671 164.172 249.728 165.764C242.785 167.356 241.859 170.939 240.007 172.133C238.156 173.327 234.916 170.54 230.75 170.938C226.583 171.336 221.955 176.113 221.955 176.113L210.846 177.705H332.582C332.582 177.705 325.64 167.356 320.548 164.968C315.456 162.579 309.439 166.56 307.125 166.56C304.81 166.56 301.57 162.978 301.57 162.978Z" stroke="#263238" stroke-miterlimit="10" stroke-linecap="round" stroke-linejoin="round"/>
<path d="M192.019 70.0053C192.019 70.0053 188.747 64.3768 180.893 64.0956C173.039 63.8144 170.093 73.6636 168.13 74.2266C166.166 74.7896 160.276 70.8496 155.367 71.9751C150.458 73.1005 149.804 75.6333 148.495 76.4775C147.186 77.3218 144.895 75.3521 141.95 75.6333C139.004 75.9145 135.732 79.2915 135.732 79.2915L127.878 80.4169H213.946C213.946 80.4169 209.037 73.0999 205.437 71.4114C201.837 69.7229 197.583 72.5369 195.947 72.5369C194.309 72.5381 192.019 70.0053 192.019 70.0053Z" stroke="#263238" stroke-miterlimit="10" stroke-linecap="round" stroke-linejoin="round"/>
<path d="M355.5 91.5967C355.5 91.5967 353.785 88.6458 349.666 88.4978C345.549 88.3504 344.004 93.5148 342.975 93.8095C341.945 94.1048 338.856 92.0387 336.283 92.6288C333.709 93.2188 333.366 94.5469 332.68 94.9896C331.993 95.4323 330.793 94.3996 329.248 94.5469C327.704 94.6943 325.988 96.4651 325.988 96.4651L321.87 97.0551H366.997C366.997 97.0551 364.423 93.2188 362.536 92.3335C360.648 91.4481 358.418 92.9235 357.56 92.9235C356.701 92.9235 355.5 91.5967 355.5 91.5967Z" stroke="#263238" stroke-miterlimit="10" stroke-linecap="round" stroke-linejoin="round"/>
<path d="M66.4905 123.88C66.4905 123.88 64.7747 120.929 60.6564 120.781C56.538 120.633 54.9944 125.798 53.9648 126.092C52.9352 126.388 49.8464 124.322 47.2732 124.912C44.6992 125.502 44.3565 126.83 43.6703 127.273C42.9842 127.715 41.7825 126.682 40.2388 126.83C38.6945 126.977 36.9787 128.748 36.9787 128.748L32.8611 129.338H77.988C77.988 129.338 75.4141 125.502 73.527 124.616C71.6398 123.731 69.4086 125.206 68.5511 125.206C67.6936 125.206 66.4905 123.88 66.4905 123.88Z" stroke="#263238" stroke-miterlimit="10" stroke-linecap="round" stroke-linejoin="round"/>
<path d="M205.599 263C205.599 282.454 192.216 298.225 175.708 298.225C159.199 298.225 145.816 282.454 145.816 263C145.816 243.545 159.198 176.682 175.708 176.682C192.217 176.682 205.599 243.545 205.599 263Z" fill="#45574A"/>
<path opacity="0.5" d="M205.599 263C205.599 282.454 192.216 298.225 175.708 298.225C159.199 298.225 145.816 282.454 145.816 263C145.816 243.545 159.198 176.682 175.708 176.682C192.217 176.682 205.599 243.545 205.599 263Z" fill="white"/>
<path d="M192.469 273.177L183.417 276.056L185.234 271.371L180.906 276.855L176.586 278.229L176.277 262.844L192.002 244.879L183.574 252.125L185 247.087L180.969 254.366L176.19 258.476L175.708 234.438L173.995 269.496L159.094 255.917L167.279 265.486L159.561 264.748L169.095 267.608L173.818 273.129L172.992 290.032L167.496 286.825L172.821 293.53L170.297 343.326H177.928L176.635 280.683L192.469 273.177Z" fill="#878787"/>
<path d="M192.152 234.514C192.152 234.514 192.429 236.876 190.928 238.61C189.427 240.344 186.717 240.793 186.717 240.793C186.717 240.793 186.44 238.431 187.941 236.697C189.442 234.964 192.152 234.514 192.152 234.514Z" fill="white"/>
<path d="M201.161 245.399C201.161 245.399 201.438 247.761 199.937 249.495C198.436 251.229 195.726 251.678 195.726 251.678C195.726 251.678 195.45 249.316 196.95 247.582C198.451 245.849 201.161 245.399 201.161 245.399Z" fill="white"/>
<path d="M201.157 266.593C201.157 266.593 200.493 268.897 198.401 270.094C196.309 271.292 193.581 270.931 193.581 270.931C193.581 270.931 194.245 268.627 196.337 267.429C198.43 266.231 201.157 266.593 201.157 266.593Z" fill="white"/>
<path d="M151.679 266.593C151.679 266.593 152.343 268.897 154.435 270.094C156.527 271.292 159.255 270.931 159.255 270.931C159.255 270.931 158.591 268.627 156.499 267.429C154.407 266.231 151.679 266.593 151.679 266.593Z" fill="white"/>
<path d="M190.752 257.795C190.752 257.795 191.029 260.157 189.528 261.891C188.027 263.625 185.317 264.074 185.317 264.074C185.317 264.074 185.04 261.712 186.541 259.978C188.042 258.245 190.752 257.795 190.752 257.795Z" fill="white"/>
<path d="M188.418 222.673C188.418 222.673 188.694 225.035 187.194 226.769C185.693 228.502 182.982 228.952 182.982 228.952C182.982 228.952 182.706 226.59 184.207 224.856C185.708 223.122 188.418 222.673 188.418 222.673Z" fill="white"/>
<path d="M183.05 231.705C183.05 231.705 183.327 234.066 181.826 235.8C180.325 237.534 177.615 237.983 177.615 237.983C177.615 237.983 177.338 235.621 178.839 233.887C180.34 232.154 183.05 231.705 183.05 231.705Z" fill="white"/>
<path d="M195.794 225.129C195.794 225.129 196.07 227.49 194.569 229.224C193.068 230.957 190.358 231.407 190.358 231.407C190.358 231.407 190.082 229.045 191.583 227.312C193.083 225.578 195.794 225.129 195.794 225.129Z" fill="white"/>
<path d="M154.384 225.129C154.384 225.129 154.108 227.49 155.609 229.224C157.109 230.957 159.82 231.407 159.82 231.407C159.82 231.407 160.096 229.045 158.595 227.312C157.094 225.578 154.384 225.129 154.384 225.129Z" fill="white"/>
<path d="M189.585 211.634C189.585 211.634 189.861 213.996 188.36 215.73C186.86 217.464 184.149 217.912 184.149 217.912C184.149 217.912 183.873 215.551 185.374 213.817C186.875 212.084 189.585 211.634 189.585 211.634Z" fill="white"/>
<path d="M186.947 199.909C186.947 199.909 187.905 202.135 186.959 204.137C186.012 206.14 183.52 207.16 183.52 207.16C183.52 207.16 182.563 204.934 183.509 202.931C184.455 200.929 186.947 199.909 186.947 199.909Z" fill="white"/>
<path d="M168.045 196.845C168.045 196.845 170.49 197.946 171.347 199.978C172.204 202.01 171.149 204.203 171.149 204.203C171.149 204.203 168.704 203.102 167.846 201.07C166.989 199.038 168.045 196.845 168.045 196.845Z" fill="white"/>
<path d="M176.859 210.866C176.859 210.866 178.601 212.708 178.457 214.865C178.313 217.023 176.337 218.681 176.337 218.681C176.337 218.681 174.595 216.839 174.74 214.682C174.884 212.524 176.859 210.866 176.859 210.866Z" fill="white"/>
<path d="M176.393 189.993C176.393 189.993 178.134 191.835 177.99 193.992C177.846 196.15 175.87 197.808 175.87 197.808C175.87 197.808 174.129 195.966 174.273 193.808C174.417 191.651 176.393 189.993 176.393 189.993Z" fill="white"/>
<path d="M156.609 234.514C156.609 234.514 156.333 236.876 157.834 238.61C159.335 240.344 162.045 240.793 162.045 240.793C162.045 240.793 162.321 238.431 160.821 236.697C159.32 234.964 156.609 234.514 156.609 234.514Z" fill="white"/>
<path d="M151.474 247.359C151.474 247.359 151.198 249.721 152.699 251.455C154.2 253.189 156.91 253.637 156.91 253.637C156.91 253.637 157.186 251.276 155.686 249.542C154.185 247.808 151.474 247.359 151.474 247.359Z" fill="white"/>
<path d="M165.105 252.023C165.105 252.023 164.828 254.384 166.329 256.118C167.83 257.851 170.54 258.301 170.54 258.301C170.54 258.301 170.817 255.939 169.316 254.205C167.814 252.472 165.105 252.023 165.105 252.023Z" fill="white"/>
<path d="M168.831 234.225C168.831 234.225 167.78 236.419 168.64 238.45C169.501 240.481 171.948 241.578 171.948 241.578C171.948 241.578 172.999 239.384 172.139 237.353C171.278 235.322 168.831 234.225 168.831 234.225Z" fill="white"/>
<path d="M159.179 281.584C159.179 281.584 161.939 281.627 163.825 280.199C165.712 278.77 166.01 276.411 166.01 276.411C166.01 276.411 163.25 276.368 161.364 277.796C159.478 279.225 159.179 281.584 159.179 281.584Z" fill="white"/>
<path d="M185.66 278.988C185.66 278.988 186.41 281.272 188.545 282.412C190.681 283.551 193.394 283.115 193.394 283.115C193.394 283.115 192.644 280.831 190.509 279.691C188.373 278.552 185.66 278.988 185.66 278.988Z" fill="white"/>
<path d="M162.258 222.673C162.258 222.673 161.981 225.035 163.482 226.769C164.983 228.502 167.693 228.952 167.693 228.952C167.693 228.952 167.97 226.59 166.469 224.856C164.968 223.122 162.258 222.673 162.258 222.673Z" fill="white"/>
<path d="M162.211 212.237C162.211 212.237 161.934 214.598 163.435 216.332C164.936 218.066 167.646 218.515 167.646 218.515C167.646 218.515 167.923 216.153 166.422 214.419C164.921 212.686 162.211 212.237 162.211 212.237Z" fill="white"/>
<path d="M255.615 286.599C255.615 300.338 246.164 311.475 234.505 311.475C222.847 311.475 213.396 300.338 213.396 286.599C213.396 272.86 222.847 225.641 234.505 225.641C246.164 225.641 255.615 272.861 255.615 286.599Z" fill="#45574A"/>
<path opacity="0.5" d="M255.615 286.599C255.615 300.338 246.164 311.475 234.505 311.475C222.847 311.475 213.396 300.338 213.396 286.599C213.396 272.86 222.847 225.641 234.505 225.641C246.164 225.641 255.615 272.861 255.615 286.599Z" fill="white"/>
<path d="M246.342 293.787L239.95 295.82L241.233 292.511L238.177 296.384L235.126 297.354L234.908 286.489L246.012 273.802L240.061 278.919L241.068 275.361L238.221 280.502L234.846 283.405L234.505 266.429L233.296 291.187L222.773 281.598L228.553 288.355L223.103 287.834L229.835 289.854L233.171 293.752L232.588 305.689L228.706 303.425L232.467 308.16L230.684 343.326H236.074L235.16 299.088L246.342 293.787Z" fill="#878787"/>
<path d="M246.119 266.483C246.119 266.483 246.314 268.151 245.254 269.375C244.194 270.599 242.28 270.917 242.28 270.917C242.28 270.917 242.085 269.249 243.145 268.025C244.205 266.8 246.119 266.483 246.119 266.483Z" fill="white"/>
<path d="M252.481 274.17C252.481 274.17 252.676 275.838 251.616 277.062C250.556 278.286 248.643 278.604 248.643 278.604C248.643 278.604 248.448 276.936 249.507 275.712C250.567 274.488 252.481 274.17 252.481 274.17Z" fill="white"/>
<path d="M252.478 289.137C252.478 289.137 252.009 290.764 250.532 291.61C249.055 292.456 247.128 292.2 247.128 292.2C247.128 292.2 247.597 290.573 249.075 289.728C250.552 288.882 252.478 289.137 252.478 289.137Z" fill="white"/>
<path d="M217.537 289.137C217.537 289.137 218.006 290.764 219.483 291.61C220.96 292.456 222.887 292.2 222.887 292.2C222.887 292.2 222.418 290.573 220.94 289.728C219.463 288.882 217.537 289.137 217.537 289.137Z" fill="white"/>
<path d="M245.13 282.924C245.13 282.924 245.325 284.592 244.265 285.816C243.205 287.04 241.291 287.358 241.291 287.358C241.291 287.358 241.096 285.69 242.156 284.466C243.215 283.241 245.13 282.924 245.13 282.924Z" fill="white"/>
<path d="M243.482 258.121C243.482 258.121 243.677 259.788 242.617 261.013C241.557 262.237 239.643 262.555 239.643 262.555C239.643 262.555 239.448 260.887 240.508 259.663C241.567 258.438 243.482 258.121 243.482 258.121Z" fill="white"/>
<path d="M239.69 264.498C239.69 264.498 239.885 266.166 238.826 267.39C237.766 268.615 235.852 268.932 235.852 268.932C235.852 268.932 235.657 267.265 236.717 266.04C237.777 264.816 239.69 264.498 239.69 264.498Z" fill="white"/>
<path d="M248.69 259.855C248.69 259.855 248.885 261.522 247.825 262.747C246.765 263.971 244.851 264.288 244.851 264.288C244.851 264.288 244.656 262.621 245.716 261.397C246.776 260.172 248.69 259.855 248.69 259.855Z" fill="white"/>
<path d="M219.446 259.855C219.446 259.855 219.252 261.522 220.311 262.747C221.371 263.971 223.285 264.288 223.285 264.288C223.285 264.288 223.48 262.621 222.42 261.397C221.36 260.172 219.446 259.855 219.446 259.855Z" fill="white"/>
<path d="M244.306 250.325C244.306 250.325 244.501 251.992 243.441 253.217C242.381 254.441 240.467 254.759 240.467 254.759C240.467 254.759 240.272 253.091 241.332 251.867C242.391 250.642 244.306 250.325 244.306 250.325Z" fill="white"/>
<path d="M242.443 242.044C242.443 242.044 243.119 243.616 242.451 245.03C241.783 246.444 240.023 247.165 240.023 247.165C240.023 247.165 239.346 245.593 240.015 244.179C240.683 242.765 242.443 242.044 242.443 242.044Z" fill="white"/>
<path d="M229.094 239.881C229.094 239.881 230.82 240.659 231.426 242.094C232.031 243.529 231.286 245.077 231.286 245.077C231.286 245.077 229.56 244.299 228.954 242.864C228.349 241.429 229.094 239.881 229.094 239.881Z" fill="white"/>
<path d="M235.319 249.783C235.319 249.783 236.549 251.083 236.447 252.607C236.345 254.131 234.95 255.301 234.95 255.301C234.95 255.301 233.719 254.001 233.821 252.477C233.924 250.953 235.319 249.783 235.319 249.783Z" fill="white"/>
<path d="M234.99 235.042C234.99 235.042 236.22 236.343 236.118 237.867C236.016 239.391 234.62 240.561 234.62 240.561C234.62 240.561 233.39 239.261 233.492 237.737C233.594 236.213 234.99 235.042 234.99 235.042Z" fill="white"/>
<path d="M221.019 266.483C221.019 266.483 220.824 268.151 221.883 269.375C222.944 270.599 224.857 270.917 224.857 270.917C224.857 270.917 225.052 269.249 223.993 268.025C222.932 266.8 221.019 266.483 221.019 266.483Z" fill="white"/>
<path d="M217.392 275.554C217.392 275.554 217.197 277.222 218.257 278.446C219.317 279.67 221.231 279.988 221.231 279.988C221.231 279.988 221.426 278.32 220.366 277.096C219.306 275.871 217.392 275.554 217.392 275.554Z" fill="white"/>
<path d="M227.018 278.847C227.018 278.847 226.822 280.515 227.882 281.739C228.943 282.963 230.856 283.281 230.856 283.281C230.856 283.281 231.051 281.613 229.991 280.389C228.931 279.164 227.018 278.847 227.018 278.847Z" fill="white"/>
<path d="M229.649 266.278C229.649 266.278 228.906 267.828 229.515 269.262C230.122 270.697 231.851 271.472 231.851 271.472C231.851 271.472 232.593 269.922 231.985 268.488C231.377 267.053 229.649 266.278 229.649 266.278Z" fill="white"/>
<path d="M222.833 299.724C222.833 299.724 224.782 299.754 226.114 298.746C227.445 297.737 227.657 296.07 227.657 296.07C227.657 296.07 225.708 296.04 224.376 297.048C223.044 298.057 222.833 299.724 222.833 299.724Z" fill="white"/>
<path d="M241.534 297.891C241.534 297.891 242.063 299.504 243.572 300.309C245.08 301.114 246.996 300.805 246.996 300.805C246.996 300.805 246.466 299.193 244.958 298.388C243.45 297.583 241.534 297.891 241.534 297.891Z" fill="white"/>
<path d="M225.007 258.121C225.007 258.121 224.812 259.788 225.872 261.013C226.932 262.237 228.845 262.555 228.845 262.555C228.845 262.555 229.04 260.887 227.981 259.663C226.921 258.438 225.007 258.121 225.007 258.121Z" fill="white"/>
<path d="M224.974 250.75C224.974 250.75 224.779 252.418 225.838 253.642C226.898 254.867 228.812 255.184 228.812 255.184C228.812 255.184 229.007 253.516 227.947 252.292C226.888 251.068 224.974 250.75 224.974 250.75Z" fill="white"/>
<path d="M88.4461 286.599C88.4461 300.338 78.9949 311.475 67.3367 311.475C55.6785 311.475 46.2273 300.338 46.2273 286.599C46.2273 272.86 55.6785 225.641 67.3367 225.641C78.9949 225.641 88.4461 272.861 88.4461 286.599Z" fill="#45574A"/>
<path opacity="0.5" d="M88.4461 286.599C88.4461 300.338 78.9949 311.475 67.3367 311.475C55.6785 311.475 46.2273 300.338 46.2273 286.599C46.2273 272.86 55.6785 225.641 67.3367 225.641C78.9949 225.641 88.4461 272.861 88.4461 286.599Z" fill="white"/>
<path d="M79.1727 293.787L72.7809 295.82L74.0633 292.511L71.0073 296.384L67.9564 297.354L67.7387 286.489L78.8435 273.802L72.8923 278.919L73.8983 275.361L71.0516 280.502L67.6773 283.405L67.3367 266.429L66.1272 291.187L55.6035 281.598L61.3841 288.355L55.9334 287.834L62.6664 289.854L66.0015 293.752L65.4182 305.689L61.5376 303.425L65.2975 308.16L63.5146 343.326H68.9046L67.9914 299.088L79.1727 293.787Z" fill="#878787"/>
<path d="M78.95 266.483C78.95 266.483 79.1449 268.151 78.0853 269.375C77.025 270.599 75.1115 270.917 75.1115 270.917C75.1115 270.917 74.9166 269.249 75.9762 268.025C77.0357 266.8 78.95 266.483 78.95 266.483Z" fill="white"/>
<path d="M85.3117 274.17C85.3117 274.17 85.5066 275.838 84.447 277.062C83.3867 278.286 81.4732 278.604 81.4732 278.604C81.4732 278.604 81.2776 276.936 82.3379 275.712C83.3981 274.488 85.3117 274.17 85.3117 274.17Z" fill="white"/>
<path d="M85.3095 289.137C85.3095 289.137 84.8404 290.764 83.3631 291.61C81.8858 292.456 79.9587 292.2 79.9587 292.2C79.9587 292.2 80.4278 290.573 81.9051 289.728C83.3824 288.882 85.3095 289.137 85.3095 289.137Z" fill="white"/>
<path d="M50.3677 289.137C50.3677 289.137 50.8368 290.764 52.314 291.61C53.7913 292.456 55.7177 292.2 55.7177 292.2C55.7177 292.2 55.2486 290.573 53.7713 289.728C52.294 288.882 50.3677 289.137 50.3677 289.137Z" fill="white"/>
<path d="M77.961 282.924C77.961 282.924 78.1559 284.592 77.0963 285.816C76.036 287.04 74.1225 287.358 74.1225 287.358C74.1225 287.358 73.9276 285.69 74.9872 284.466C76.0467 283.241 77.961 282.924 77.961 282.924Z" fill="white"/>
<path d="M76.3123 258.121C76.3123 258.121 76.5072 259.788 75.4476 261.013C74.3873 262.237 72.4738 262.555 72.4738 262.555C72.4738 262.555 72.2789 260.887 73.3385 259.663C74.3988 258.438 76.3123 258.121 76.3123 258.121Z" fill="white"/>
<path d="M72.5219 264.498C72.5219 264.498 72.7168 266.166 71.6572 267.39C70.5969 268.615 68.6834 268.932 68.6834 268.932C68.6834 268.932 68.4878 267.265 69.5481 266.04C70.6076 264.816 72.5219 264.498 72.5219 264.498Z" fill="white"/>
<path d="M81.521 259.855C81.521 259.855 81.7159 261.522 80.6564 262.747C79.5961 263.971 77.6826 264.288 77.6826 264.288C77.6826 264.288 77.4876 262.621 78.5472 261.397C79.6068 260.172 81.521 259.855 81.521 259.855Z" fill="white"/>
<path d="M52.277 259.855C52.277 259.855 52.0821 261.522 53.1417 262.747C54.202 263.971 56.1155 264.288 56.1155 264.288C56.1155 264.288 56.3104 262.621 55.2509 261.397C54.1913 260.172 52.277 259.855 52.277 259.855Z" fill="white"/>
<path d="M77.1363 250.325C77.1363 250.325 77.3319 251.992 76.2716 253.217C75.2113 254.441 73.2978 254.759 73.2978 254.759C73.2978 254.759 73.1029 253.091 74.1624 251.867C75.2227 250.642 77.1363 250.325 77.1363 250.325Z" fill="white"/>
<path d="M75.2736 242.044C75.2736 242.044 75.9498 243.616 75.2815 245.03C74.6132 246.444 72.8531 247.165 72.8531 247.165C72.8531 247.165 72.177 245.593 72.8453 244.179C73.5143 242.765 75.2736 242.044 75.2736 242.044Z" fill="white"/>
<path d="M61.9246 239.881C61.9246 239.881 63.6511 240.659 64.2565 242.094C64.8613 243.529 64.1166 245.077 64.1166 245.077C64.1166 245.077 62.3901 244.299 61.7847 242.864C61.1792 241.429 61.9246 239.881 61.9246 239.881Z" fill="white"/>
<path d="M68.15 249.783C68.15 249.783 69.3802 251.083 69.2781 252.607C69.176 254.131 67.7809 255.301 67.7809 255.301C67.7809 255.301 66.5506 254.001 66.6527 252.477C66.7549 250.953 68.15 249.783 68.15 249.783Z" fill="white"/>
<path d="M67.8202 235.042C67.8202 235.042 69.0504 236.343 68.9483 237.867C68.8462 239.391 67.451 240.561 67.451 240.561C67.451 240.561 66.2208 239.261 66.3229 237.737C66.425 236.213 67.8202 235.042 67.8202 235.042Z" fill="white"/>
<path d="M53.8493 266.483C53.8493 266.483 53.6544 268.151 54.714 269.375C55.7742 270.599 57.6885 270.917 57.6885 270.917C57.6885 270.917 57.8834 269.249 56.8238 268.025C55.7628 266.8 53.8493 266.483 53.8493 266.483Z" fill="white"/>
<path d="M50.2228 275.554C50.2228 275.554 50.0279 277.222 51.0875 278.446C52.1478 279.67 54.0613 279.988 54.0613 279.988C54.0613 279.988 54.2562 278.32 53.1966 277.096C52.1371 275.871 50.2228 275.554 50.2228 275.554Z" fill="white"/>
<path d="M59.8483 278.847C59.8483 278.847 59.6534 280.515 60.713 281.739C61.7733 282.963 63.6868 283.281 63.6868 283.281C63.6868 283.281 63.8817 281.613 62.8221 280.389C61.7626 279.164 59.8483 278.847 59.8483 278.847Z" fill="white"/>
<path d="M62.4802 266.278C62.4802 266.278 61.7376 267.828 62.3459 269.262C62.9535 270.697 64.6821 271.472 64.6821 271.472C64.6821 271.472 65.4247 269.922 64.8164 268.488C64.208 267.053 62.4802 266.278 62.4802 266.278Z" fill="white"/>
<path d="M55.6643 299.724C55.6643 299.724 57.6135 299.754 58.9451 298.746C60.2767 297.737 60.4881 296.07 60.4881 296.07C60.4881 296.07 58.5389 296.04 57.2073 297.048C55.8749 298.057 55.6643 299.724 55.6643 299.724Z" fill="white"/>
<path d="M74.3645 297.891C74.3645 297.891 74.8936 299.504 76.4023 300.309C77.9102 301.114 79.8266 300.805 79.8266 300.805C79.8266 300.805 79.2968 299.193 77.7888 298.388C76.2809 297.583 74.3645 297.891 74.3645 297.891Z" fill="white"/>
<path d="M57.8383 258.121C57.8383 258.121 57.6434 259.788 58.703 261.013C59.7633 262.237 61.6768 262.555 61.6768 262.555C61.6768 262.555 61.8717 260.887 60.8121 259.663C59.7518 258.438 57.8383 258.121 57.8383 258.121Z" fill="white"/>
<path d="M57.8049 250.75C57.8049 250.75 57.6099 252.418 58.6695 253.642C59.7298 254.867 61.6433 255.184 61.6433 255.184C61.6433 255.184 61.8383 253.516 60.7787 252.292C59.7191 251.068 57.8049 250.75 57.8049 250.75Z" fill="white"/>
<path d="M372.077 235.37C372.077 261.516 354.091 282.712 331.904 282.712C309.717 282.712 291.731 261.516 291.731 235.37C291.731 209.224 309.717 119.362 331.904 119.362C354.091 119.362 372.077 209.224 372.077 235.37Z" fill="#45574A"/>
<path opacity="0.5" d="M372.077 235.37C372.077 261.516 354.091 282.712 331.904 282.712C309.717 282.712 291.731 261.516 291.731 235.37C291.731 209.224 309.717 119.362 331.904 119.362C354.091 119.362 372.077 209.224 372.077 235.37Z" fill="white"/>
<path d="M354.43 249.05L342.265 252.918L344.706 246.622L338.891 253.992L333.085 255.839L332.67 235.161L353.802 211.017L342.477 220.756L344.392 213.984L338.974 223.768L332.552 229.291L331.904 196.985L329.602 244.102L309.575 225.852L320.576 238.712L310.203 237.721L323.016 241.564L329.363 248.984L328.254 271.701L320.867 267.391L328.024 276.403L324.632 343.326H334.888L333.15 259.137L354.43 249.05Z" fill="#878787"/>
<path d="M354.005 197.087C354.005 197.087 354.376 200.261 352.359 202.591C350.341 204.921 346.699 205.525 346.699 205.525C346.699 205.525 346.328 202.351 348.345 200.021C350.363 197.692 354.005 197.087 354.005 197.087Z" fill="white"/>
<path d="M366.113 211.717C366.113 211.717 366.484 214.891 364.467 217.221C362.449 219.551 358.807 220.155 358.807 220.155C358.807 220.155 358.435 216.981 360.453 214.651C362.47 212.321 366.113 211.717 366.113 211.717Z" fill="white"/>
<path d="M366.108 240.2C366.108 240.2 365.215 243.296 362.404 244.906C359.592 246.516 355.926 246.031 355.926 246.031C355.926 246.031 356.818 242.934 359.63 241.324C362.441 239.714 366.108 240.2 366.108 240.2Z" fill="white"/>
<path d="M299.611 240.2C299.611 240.2 300.503 243.296 303.315 244.906C306.127 246.516 309.792 246.031 309.792 246.031C309.792 246.031 308.9 242.934 306.088 241.324C303.277 239.714 299.611 240.2 299.611 240.2Z" fill="white"/>
<path d="M352.123 228.377C352.123 228.377 352.494 231.551 350.477 233.881C348.46 236.211 344.817 236.814 344.817 236.814C344.817 236.814 344.446 233.641 346.463 231.311C348.48 228.98 352.123 228.377 352.123 228.377Z" fill="white"/>
<path d="M348.986 181.174C348.986 181.174 349.357 184.348 347.34 186.678C345.323 189.008 341.68 189.611 341.68 189.611C341.68 189.611 341.309 186.438 343.326 184.107C345.344 181.777 348.986 181.174 348.986 181.174Z" fill="white"/>
<path d="M341.772 193.311C341.772 193.311 342.143 196.485 340.126 198.815C338.108 201.145 334.466 201.749 334.466 201.749C334.466 201.749 334.094 198.575 336.112 196.245C338.13 193.915 341.772 193.311 341.772 193.311Z" fill="white"/>
<path d="M358.898 184.474C358.898 184.474 359.27 187.648 357.253 189.978C355.235 192.308 351.593 192.912 351.593 192.912C351.593 192.912 351.222 189.738 353.239 187.408C355.256 185.078 358.898 184.474 358.898 184.474Z" fill="white"/>
<path d="M303.245 184.474C303.245 184.474 302.874 187.648 304.891 189.978C306.908 192.308 310.551 192.912 310.551 192.912C310.551 192.912 310.922 189.738 308.905 187.408C306.888 185.078 303.245 184.474 303.245 184.474Z" fill="white"/>
<path d="M350.554 166.338C350.554 166.338 350.926 169.512 348.908 171.842C346.891 174.172 343.248 174.776 343.248 174.776C343.248 174.776 342.877 171.602 344.894 169.272C346.912 166.942 350.554 166.338 350.554 166.338Z" fill="white"/>
<path d="M347.009 150.579C347.009 150.579 348.296 153.571 347.024 156.263C345.752 158.954 342.403 160.325 342.403 160.325C342.403 160.325 341.116 157.333 342.388 154.642C343.66 151.95 347.009 150.579 347.009 150.579Z" fill="white"/>
<path d="M321.605 146.461C321.605 146.461 324.891 147.942 326.043 150.672C327.194 153.403 325.775 156.35 325.775 156.35C325.775 156.35 322.49 154.87 321.337 152.14C320.186 149.408 321.605 146.461 321.605 146.461Z" fill="white"/>
<path d="M333.452 165.306C333.452 165.306 335.793 167.78 335.599 170.68C335.404 173.58 332.749 175.808 332.749 175.808C332.749 175.808 330.408 173.334 330.602 170.433C330.796 167.533 333.452 165.306 333.452 165.306Z" fill="white"/>
<path d="M332.825 137.254C332.825 137.254 335.165 139.728 334.971 142.629C334.777 145.529 332.122 147.756 332.122 147.756C332.122 147.756 329.781 145.282 329.975 142.381C330.169 139.481 332.825 137.254 332.825 137.254Z" fill="white"/>
<path d="M306.237 197.087C306.237 197.087 305.866 200.261 307.883 202.591C309.9 204.921 313.542 205.525 313.542 205.525C313.542 205.525 313.914 202.351 311.897 200.021C309.879 197.692 306.237 197.087 306.237 197.087Z" fill="white"/>
<path d="M299.336 214.351C299.336 214.351 298.965 217.524 300.982 219.855C302.999 222.185 306.642 222.788 306.642 222.788C306.642 222.788 307.013 219.614 304.996 217.284C302.978 214.954 299.336 214.351 299.336 214.351Z" fill="white"/>
<path d="M317.654 220.618C317.654 220.618 317.282 223.792 319.299 226.122C321.316 228.452 324.959 229.056 324.959 229.056C324.959 229.056 325.331 225.882 323.313 223.552C321.296 221.222 317.654 220.618 317.654 220.618Z" fill="white"/>
<path d="M322.662 196.698C322.662 196.698 321.249 199.647 322.406 202.377C323.563 205.106 326.852 206.582 326.852 206.582C326.852 206.582 328.265 203.632 327.108 200.903C325.95 198.174 322.662 196.698 322.662 196.698Z" fill="white"/>
<path d="M309.69 260.348C309.69 260.348 313.399 260.406 315.934 258.486C318.469 256.566 318.87 253.395 318.87 253.395C318.87 253.395 315.161 253.337 312.626 255.257C310.092 257.177 309.69 260.348 309.69 260.348Z" fill="white"/>
<path d="M345.28 256.859C345.28 256.859 346.287 259.929 349.158 261.461C352.028 262.993 355.674 262.406 355.674 262.406C355.674 262.406 354.667 259.336 351.796 257.804C348.926 256.273 345.28 256.859 345.28 256.859Z" fill="white"/>
<path d="M313.828 181.174C313.828 181.174 313.457 184.348 315.474 186.678C317.491 189.008 321.134 189.611 321.134 189.611C321.134 189.611 321.505 186.438 319.488 184.107C317.47 181.777 313.828 181.174 313.828 181.174Z" fill="white"/>
<path d="M313.764 167.148C313.764 167.148 313.393 170.321 315.41 172.651C317.427 174.982 321.07 175.585 321.07 175.585C321.07 175.585 321.441 172.411 319.424 170.081C317.407 167.751 313.764 167.148 313.764 167.148Z" fill="white"/>
<path d="M330.486 343.326V337.109L333.402 310.876L283.466 309.702C283.466 309.702 281.382 312.995 279.986 315.505C278.59 318.014 268.313 337.873 268.313 337.873L266.728 343.326H330.486Z" fill="#263238" stroke="#263238" stroke-miterlimit="10" stroke-linecap="round" stroke-linejoin="round"/>
<path d="M307.769 225.128C307.769 225.128 302.039 222.719 297.455 223.376C292.871 224.033 286.631 225.019 283.193 225.019C279.755 225.019 271.733 223.705 271.733 223.705C271.733 223.705 270.587 221.843 274.916 218.448C279.246 215.054 283.83 211.112 284.085 209.798C284.34 208.484 284.594 207.608 284.594 207.608L271.097 208.593C271.097 208.593 271.351 209.798 270.078 212.316C268.805 214.835 258.386 220.476 254.438 225.842C250.49 231.207 250.812 230.445 253.359 233.183C255.905 235.92 262.299 238.227 273.867 239.596C288.932 241.379 299.11 238.816 299.11 238.816L308.661 226.99L307.769 225.128Z" fill="#FFE0CC" stroke="#263238" stroke-miterlimit="10" stroke-linecap="round" stroke-linejoin="round"/>
<path d="M290.197 230.165C290.197 230.165 294.144 236.188 294.654 239.473" stroke="#263238" stroke-miterlimit="10" stroke-linecap="round" stroke-linejoin="round"/>
<path d="M264.644 232.192C263.929 232.224 263.153 232.209 262.309 232.136" stroke="#263238" stroke-miterlimit="10" stroke-linecap="round" stroke-linejoin="round"/>
<path d="M271.987 224.58C271.987 224.58 273.26 226.661 272.242 228.304C271.468 229.551 269.815 231.428 266.278 232.022" stroke="#263238" stroke-miterlimit="10" stroke-linecap="round" stroke-linejoin="round"/>
<path d="M303.706 187.768C303.706 187.768 300.9 190.683 301.017 192.291C301.134 193.899 301.718 194.402 300.784 195.406C299.849 196.411 297.394 197.216 297.628 198.422C297.861 199.628 300.083 200.533 300.083 200.533C300.083 200.533 299.031 201.839 299.264 202.543C299.498 203.246 299.498 203.246 299.498 203.246C299.498 203.246 298.329 204.452 298.563 205.055C298.796 205.658 299.147 206.563 299.147 206.563C299.147 206.563 298.211 209.477 299.03 210.885C299.848 212.292 302.419 213.196 305.458 213.096C308.496 212.995 310.717 218.825 311.068 220.634C311.418 222.443 311.185 223.348 310.717 223.951C310.249 224.553 304.99 224.553 300.665 227.67C296.341 230.786 294.471 234.605 293.419 243.449C292.367 252.294 290.147 279.532 290.147 279.532L286.976 298.127L283.464 309.702C283.464 309.702 307.067 315.238 317.406 314.399C327.744 313.56 333.401 310.876 333.401 310.876C333.401 310.876 329.694 285.882 329.694 284.205C329.694 282.527 341.984 242.269 341.984 242.269C341.984 242.269 344.91 232.875 344.129 229.855C343.349 226.836 335.937 221.972 333.791 220.126C331.645 218.281 327.939 214.758 327.939 211.571C327.939 208.384 335.145 200.251 336.048 196.196C336.951 192.141 336.048 188.432 336.048 188.432C336.048 188.432 336.951 190.934 337.352 189.554C337.753 188.173 335.546 185.844 335.546 185.844C335.546 185.844 337.051 185.93 336.349 184.032C335.646 182.134 334.142 181.012 334.142 181.875C334.142 182.738 334.142 183.342 334.041 183.6C333.941 183.859 332.436 183.083 325.313 179.373C318.19 175.663 310.366 176.612 309.864 177.13C309.363 177.648 310.566 175.06 307.957 176.44C305.349 177.82 301.537 180.667 301.938 183.859C302.343 187.052 303.706 187.768 303.706 187.768Z" fill="#FFE0CC" stroke="#263238" stroke-miterlimit="10" stroke-linecap="round" stroke-linejoin="round"/>
<path d="M318.494 197.577C319.096 198.008 319.397 198.957 319.999 197.835C320.601 196.713 322.005 194.73 325.416 195.506C328.827 196.282 328.225 199.388 327.623 201.286C327.073 203.022 327.614 208.44 328.479 209.613C330.164 205.793 335.297 199.577 336.051 196.196C336.954 192.141 336.051 188.432 336.051 188.432C336.051 188.432 336.954 190.934 337.355 189.554C337.756 188.173 335.549 185.844 335.549 185.844C335.549 185.844 337.054 185.93 336.352 184.032C335.649 182.134 334.145 181.012 334.145 181.875C334.145 182.738 334.145 183.342 334.044 183.6C333.944 183.859 332.439 183.083 325.316 179.373C318.193 175.663 310.369 176.612 309.867 177.13C309.365 177.648 310.569 175.06 307.96 176.44C305.352 177.82 301.54 180.667 301.941 183.859C302.333 186.972 303.636 187.729 303.7 187.764C303.661 187.737 303.556 187.494 307.259 185.584C311.271 183.514 317.29 185.412 314.883 187.569C312.475 189.726 314.18 190.502 316.688 192.054C319.196 193.608 317.892 197.145 318.494 197.577Z" fill="#263238" stroke="#263238" stroke-miterlimit="10" stroke-linecap="round" stroke-linejoin="round"/>
<path d="M321.805 197.318C321.805 197.318 324.614 194.816 326.62 196.11C328.626 197.404 327.422 201.2 326.219 202.149C325.015 203.098 321.102 204.823 320.3 203.356" fill="#FFE0CC"/>
<path d="M321.805 197.318C321.805 197.318 324.614 194.816 326.62 196.11C328.626 197.404 327.422 201.2 326.219 202.149C325.015 203.098 321.102 204.823 320.3 203.356" stroke="#263238" stroke-miterlimit="10" stroke-linecap="round" stroke-linejoin="round"/>
<path d="M304.315 192.12C304.315 192.12 306.957 190.761 310.067 192.573" stroke="#263238" stroke-width="2" stroke-miterlimit="10" stroke-linecap="round" stroke-linejoin="round"/>
<path d="M304.373 194.989C304.373 194.989 305.805 196.219 308.964 194.989" stroke="#263238" stroke-miterlimit="10" stroke-linecap="round" stroke-linejoin="round"/>
<path d="M305.459 213.096C305.459 213.096 310.87 213.45 313.779 211.121C313.779 211.121 311.471 215.521 309.565 216.556C309.565 216.556 307.573 213.002 305.459 213.096Z" fill="#263238" stroke="#263238" stroke-miterlimit="10" stroke-linecap="round" stroke-linejoin="round"/>
<path d="M335.414 221.403C334.708 221.536 333.442 221.825 331.737 222.422C329.028 223.372 318.293 231.049 313.478 233.983C308.663 236.916 304.148 238.123 302.543 235.449C300.938 232.774 303.948 228.979 305.051 227.34C306.155 225.7 308.764 225.528 309.867 224.752C310.259 224.475 310.495 224.222 310.641 224.009C309.882 224.557 304.845 224.66 300.667 227.67C296.342 230.786 294.472 234.605 293.42 243.45C292.369 252.295 290.148 279.532 290.148 279.532L286.977 298.128L283.466 309.702C283.466 309.702 307.069 315.238 317.407 314.399C327.746 313.561 333.402 310.877 333.402 310.877C333.402 310.877 329.696 285.883 329.696 284.205C329.696 282.528 341.985 242.269 341.985 242.269C341.985 242.269 344.911 232.876 344.131 229.856C343.493 227.385 338.414 223.679 335.414 221.403Z" fill="#02A2FF" stroke="#263238" stroke-miterlimit="10" stroke-linecap="round" stroke-linejoin="round"/>
<path d="M322.148 274.874C323.129 275.624 324.055 276.235 324.89 276.652" stroke="#263238" stroke-miterlimit="10" stroke-linecap="round" stroke-linejoin="round"/>
<path d="M305.712 257.566C305.712 257.566 314.048 268.071 320.743 273.74" stroke="#263238" stroke-miterlimit="10" stroke-linecap="round" stroke-linejoin="round"/>
<path d="M312.756 310.045C314.744 310.492 316.854 310.918 319.072 311.305" stroke="#263238" stroke-miterlimit="10" stroke-linecap="round" stroke-linejoin="round"/>
<path d="M292.783 303.707C292.783 303.707 298.993 306.6 309.208 309.196" stroke="#263238" stroke-miterlimit="10" stroke-linecap="round" stroke-linejoin="round"/>
<path d="M294.506 307.043C294.506 307.043 307.867 311.49 314.977 311.675" stroke="#263238" stroke-miterlimit="10" stroke-linecap="round" stroke-linejoin="round"/>
<path d="M278.875 209.118C278.875 209.118 274.701 210.444 274.893 211.825C275.086 213.206 276.371 213.923 277.462 213.923" stroke="#263238" stroke-miterlimit="10" stroke-linecap="round" stroke-linejoin="round"/>
<path d="M294.195 201.571C294.476 204.132 294.139 206.253 293.443 206.31C292.748 206.366 291.956 204.336 291.675 201.775C291.395 199.215 291.731 197.093 292.427 197.036C293.123 196.98 293.914 199.01 294.195 201.571Z" fill="#FFE0CC" stroke="#263238" stroke-miterlimit="10" stroke-linecap="round" stroke-linejoin="round"/>
<path d="M297.434 201.309C297.153 198.748 296.361 196.718 295.666 196.775L292.427 197.036L293.443 206.309L296.683 206.048C297.378 205.992 297.714 203.87 297.434 201.309Z" fill="#02A2FF" stroke="#263238" stroke-miterlimit="10" stroke-linecap="round" stroke-linejoin="round"/>
<path d="M260.482 198.42C260.482 198.42 261.091 198.062 262.125 197.919C263.16 197.777 290.23 196.353 291.306 196.567C292.382 196.78 292.427 197.036 292.427 197.036L293.443 206.31C293.443 206.31 292.838 206.996 291.265 207.245C289.692 207.494 263.119 208.811 262.581 208.882C262.043 208.954 261.892 208.701 261.616 208.756C261.339 208.811 260.482 198.42 260.482 198.42Z" fill="#FFE0CC" stroke="#263238" stroke-miterlimit="10" stroke-linecap="round" stroke-linejoin="round"/>
<path d="M277.783 196.967C277.783 196.967 277.269 196.139 276.499 195.918C275.728 195.697 273.673 195.807 273.865 196.415C274.058 197.023 274.058 197.023 274.058 197.023L277.783 196.967Z" fill="#FFE0CC" stroke="#263238" stroke-miterlimit="10" stroke-linecap="round" stroke-linejoin="round"/>
<path d="M283.05 196.635C283.05 196.635 281.637 195.476 280.417 195.697C279.475 195.867 279.775 196.912 279.775 196.912L283.05 196.635Z" fill="#FFE0CC" stroke="#263238" stroke-miterlimit="10" stroke-linecap="round" stroke-linejoin="round"/>
<path d="M287.289 196.525C287.289 196.525 285.876 195.365 284.656 195.586C283.713 195.757 284.013 196.801 284.013 196.801L287.289 196.525Z" fill="#FFE0CC" stroke="#263238" stroke-miterlimit="10" stroke-linecap="round" stroke-linejoin="round"/>
<path d="M286.968 197.464C286.968 197.464 287.225 200.612 286.582 202.324C285.94 204.037 285.169 205.748 285.169 205.748" stroke="#263238" stroke-miterlimit="10" stroke-linecap="round" stroke-linejoin="round"/>
<path d="M280.289 197.685C280.289 197.685 281.509 199.453 281.123 200.17C280.738 200.888 280.545 201.33 280.545 201.33" stroke="#263238" stroke-miterlimit="10" stroke-linecap="round" stroke-linejoin="round"/>
<path d="M277.912 197.74C277.912 197.74 278.875 199.287 279.003 200.336" stroke="#263238" stroke-miterlimit="10" stroke-linecap="round" stroke-linejoin="round"/>
<path d="M275.021 197.961C275.021 197.961 275.92 199.674 275.985 200.502C276.049 201.33 275.728 201.993 275.471 201.938C275.214 201.883 272.452 199.287 271.424 198.845" stroke="#263238" stroke-miterlimit="10" stroke-linecap="round" stroke-linejoin="round"/>
<path d="M269.369 200.115C269.369 200.115 271.81 202.269 272.067 203.098C272.324 203.926 271.36 207.185 271.36 207.185" stroke="#263238" stroke-miterlimit="10" stroke-linecap="round" stroke-linejoin="round"/>
<path d="M297.245 199.839H299.108C299.108 199.839 299.687 200.447 299.751 201.716C299.815 202.987 299.301 203.87 299.301 203.87L297.438 204.091C297.438 204.091 297.823 201.054 297.245 199.839Z" fill="#92E3A9" stroke="#263238" stroke-miterlimit="10" stroke-linecap="round" stroke-linejoin="round"/>
<path d="M296.734 315.723C296.51 323.506 295.312 331.228 295.704 338.943" stroke="#8A8A8A" stroke-miterlimit="10" stroke-linecap="round" stroke-linejoin="round"/>
<path d="M286.584 325.215C286.584 325.215 290.517 336.672 292.547 339.946" stroke="#8A8A8A" stroke-miterlimit="10" stroke-linecap="round" stroke-linejoin="round"/>
<path d="M262.497 201.883L260.792 201.96C261.066 204.966 261.448 208.79 261.616 208.756C261.892 208.701 262.044 208.954 262.581 208.882C263.12 208.811 289.692 207.494 291.265 207.245C292.838 206.996 293.443 206.31 293.443 206.31L292.964 201.937L262.497 201.883Z" fill="#02A2FF" stroke="#263238" stroke-miterlimit="10" stroke-linecap="round" stroke-linejoin="round"/>
<path d="M279.66 214.451C279.66 214.451 284.055 211.617 285.062 210.514C286.07 209.412 285.941 209.229 285.748 208.787C285.556 208.344 285.042 207.848 284.657 206.964C284.271 206.08 282.73 205.638 282.152 207.129C281.574 208.621 282.281 209.615 282.538 209.946C282.795 210.278 282.795 210.609 282.795 210.609" fill="#FFE0CC"/>
<path d="M279.66 214.451C279.66 214.451 284.055 211.617 285.062 210.514C286.07 209.412 285.941 209.229 285.748 208.787C285.556 208.344 285.042 207.848 284.657 206.964C284.271 206.08 282.73 205.638 282.152 207.129C281.574 208.621 282.281 209.615 282.538 209.946C282.795 210.278 282.795 210.609 282.795 210.609" stroke="#263238" stroke-miterlimit="10" stroke-linecap="round" stroke-linejoin="round"/>
<path d="M262.453 203.474C262.766 206.328 262.391 208.693 261.615 208.756C260.84 208.818 259.957 206.556 259.645 203.702C259.332 200.848 259.707 198.484 260.482 198.42C261.258 198.357 262.14 200.62 262.453 203.474Z" fill="#FFE0CC" stroke="#263238" stroke-miterlimit="10" stroke-linecap="round" stroke-linejoin="round"/>
<path d="M338.075 223.595C338.075 223.595 332.855 223.814 327.379 230.603C321.903 237.392 322.031 246.153 324.832 250.095C327.634 254.037 331.199 256.884 331.199 256.884L335.783 276.156C335.783 276.156 331.835 288.091 330.944 292.91C330.053 297.728 319.738 316.563 319.611 316.891C319.484 317.22 312.353 324.666 312.226 325.542C312.099 326.418 309.425 332.331 308.788 333.535C308.151 334.74 308.788 335.069 310.189 334.74C311.589 334.412 313.372 332.66 313.372 332.66C313.372 332.66 312.608 336.93 312.353 338.135C312.099 339.34 310.189 339.34 310.953 340.434C311.717 341.529 315.409 340.106 316.046 339.887C316.683 339.667 322.923 339.23 324.705 337.916C326.488 336.602 328.271 333.864 328.525 331.784C328.78 329.703 329.034 322.805 329.798 319.629C330.562 316.453 347.243 295.429 349.408 290.173C351.573 284.917 352.719 277.251 352.464 275.937C352.209 274.623 352.464 253.051 351.955 245.824C351.446 238.597 347.753 230.822 345.588 228.085C343.423 225.347 338.075 223.595 338.075 223.595Z" fill="#FFE0CC" stroke="#263238" stroke-miterlimit="10" stroke-linecap="round" stroke-linejoin="round"/>
<path d="M331.199 256.884L329.495 248.921C329.495 248.921 327.238 247.707 325.544 245.523" stroke="#263238" stroke-miterlimit="10" stroke-linecap="round" stroke-linejoin="round"/>
<path d="M316.046 339.887C316.046 339.887 317.782 337.873 318.065 336.781C318.347 335.689 319.335 331.32 319.335 331.32" stroke="#263238" stroke-miterlimit="10" stroke-linecap="round" stroke-linejoin="round"/>
<path d="M320.323 339.087C320.323 339.087 321.451 337.752 321.451 336.659C321.451 335.567 322.722 331.077 322.722 331.077" stroke="#263238" stroke-miterlimit="10" stroke-linecap="round" stroke-linejoin="round"/>
<path d="M322.721 338.601C322.721 338.601 324.132 338.115 324.697 335.325C325.262 332.533 326.108 330.713 326.108 330.713" stroke="#263238" stroke-miterlimit="10" stroke-linecap="round" stroke-linejoin="round"/>
<path d="M313.372 332.66L314.395 326.223" stroke="#263238" stroke-miterlimit="10" stroke-linecap="round" stroke-linejoin="round"/>
<path d="M112.341 124.349C112.341 124.349 114.819 125.324 118.186 123.038C121.552 120.752 130.808 116.93 133.111 123.482C135.415 130.035 132.225 134.606 129.745 135.825C127.263 137.044 119.644 134.911 117.518 132.32C115.391 129.729 109.151 126.178 112.341 124.349Z" fill="#263238" stroke="#263238" stroke-miterlimit="10" stroke-linecap="round" stroke-linejoin="round"/>
<path d="M104.712 343.326H194.157L189.746 314.981C189.746 313.666 188.433 288.322 189.389 281.088C190.345 273.855 194.933 270.895 193.786 262.51C192.639 254.126 171.991 223.71 171.991 223.71C171.991 223.71 164.535 212.038 157.653 207.27C150.77 202.502 144.652 201.187 139.873 201.187C135.093 201.187 105.078 215.49 102.401 220.915C99.7244 226.341 110.239 308.544 110.239 308.544L104.712 343.326Z" fill="#02A2FF" stroke="#263238" stroke-miterlimit="10" stroke-linecap="round" stroke-linejoin="round"/>
<path d="M159.912 328.631C161.237 329.075 162.562 329.507 163.882 329.923Z" fill="#02A2FF"/>
<path d="M159.912 328.631C161.237 329.075 162.562 329.507 163.882 329.923" stroke="#263238" stroke-miterlimit="10" stroke-linecap="round" stroke-linejoin="round"/>
<path d="M122.4 313.458C122.4 313.458 139.356 321.503 157.291 327.736Z" fill="#02A2FF"/>
<path d="M122.4 313.458C122.4 313.458 139.356 321.503 157.291 327.736" stroke="#263238" stroke-miterlimit="10" stroke-linecap="round" stroke-linejoin="round"/>
<path d="M117.245 317.891C117.245 317.891 132.218 321.69 134.918 322.113Z" fill="#02A2FF"/>
<path d="M117.245 317.891C117.245 317.891 132.218 321.69 134.918 322.113" stroke="#263238" stroke-miterlimit="10" stroke-linecap="round" stroke-linejoin="round"/>
<path d="M151.754 291.147C150.31 291.448 148.791 291.71 147.191 291.928Z" fill="#02A2FF"/>
<path d="M151.754 291.147C150.31 291.448 148.791 291.71 147.191 291.928" stroke="#263238" stroke-miterlimit="10" stroke-linecap="round" stroke-linejoin="round"/>
<path d="M177.628 274.408C177.628 274.408 173.293 285.268 155.539 290.228Z" fill="#02A2FF"/>
<path d="M177.628 274.408C177.628 274.408 173.293 285.268 155.539 290.228" stroke="#263238" stroke-miterlimit="10" stroke-linecap="round" stroke-linejoin="round"/>
<path d="M87.0502 343.326H117.061L114.638 305.091C114.638 305.091 121.138 264.648 120.947 257.085C120.755 249.522 120.373 230.615 112.917 223.382C105.461 216.148 99.3431 217.792 99.3431 217.792C99.3431 217.792 92.0782 220.258 89.4014 230.122C86.7246 239.987 84.8132 298.351 84.8132 298.351C84.8132 298.351 85.0046 302.954 85.1952 309.037C85.3666 314.456 86.7503 338.204 87.0502 343.326Z" fill="#FFE0CC" stroke="#263238" stroke-miterlimit="10" stroke-linecap="round" stroke-linejoin="round"/>
<path d="M207.733 159.778C207.733 159.778 209.389 167.203 209.981 170.357C210.572 173.51 209.508 174.426 216.251 179.614C222.993 184.801 249.253 207.078 258.125 218.37C266.997 229.661 271.965 235.764 270.545 239.63C269.126 243.495 260.372 247.157 255.168 247.971C249.963 248.784 232.456 249.904 217.552 249.293C202.647 248.683 194.486 247.666 194.486 247.666L171.183 204.84C171.183 204.84 190.109 213.995 204.068 217.047C218.026 220.098 226.779 221.828 226.779 221.828C226.779 221.828 217.316 204.128 208.09 195.685C198.863 187.242 193.894 183.275 190.819 179.511C187.743 175.747 183.485 160.998 183.485 160.998L207.733 159.778Z" fill="#FFE0CC" stroke="#263238" stroke-miterlimit="10" stroke-linecap="round" stroke-linejoin="round"/>
<path d="M177.742 207.38C177.742 207.38 199.25 218.988 208.651 226.807C218.053 234.627 221.666 239.586 219.971 242.104C218.276 244.622 208.651 249.401 208.651 249.401C208.651 249.401 206.254 243.96 195.774 232.429C185.294 220.899 177.742 207.38 177.742 207.38Z" stroke="#263238" stroke-miterlimit="10" stroke-linecap="round" stroke-linejoin="round"/>
<path d="M148.768 194.525C148.768 194.525 159.248 195.187 167.416 198.633C175.584 202.079 196.39 222.489 206.1 238.525C215.809 254.561 215.809 257.743 215.809 257.743C215.809 257.743 211.802 259.863 203.017 262.514C194.232 265.165 191.921 265.827 190.688 264.767C189.455 263.706 181.132 246.345 172.348 230.176C163.564 214.007 149.076 206.717 149.076 206.717L148.768 194.525Z" fill="white" stroke="#263238" stroke-miterlimit="10" stroke-linecap="round" stroke-linejoin="round"/>
<path d="M166.264 211.55C167.372 212.634 168.479 213.857 169.561 215.235" stroke="#263238" stroke-miterlimit="10" stroke-linecap="round" stroke-linejoin="round"/>
<path d="M150.656 203.111C150.656 203.111 157.331 203.828 164.455 209.896" stroke="#263238" stroke-miterlimit="10" stroke-linecap="round" stroke-linejoin="round"/>
<path d="M115.037 127.596C115.037 127.596 123.011 127.596 129.036 131.101C135.06 134.606 138.25 140.396 140.73 141.158C143.211 141.92 152.78 140.854 154.374 142.834C155.969 144.815 154.374 147.863 153.488 148.777C152.602 149.692 157.563 151.215 158.095 151.672C158.627 152.13 159.158 153.653 158.627 154.263C158.095 154.872 159.69 153.958 160.931 154.72C162.171 155.482 161.64 157.92 161.64 157.92C161.64 157.92 166.955 162.186 166.424 165.081C165.893 167.976 162.172 171.633 156.856 173.615C151.54 175.596 148.528 180.32 148.882 189.005C149.236 197.691 150.477 206.681 150.477 206.681C150.477 206.681 167.842 222.376 169.082 233.043C170.323 243.709 155.084 252.395 143.92 244.166C132.757 235.938 119.998 212.929 116.278 208.51C112.556 204.091 115.924 190.376 106.178 182.453C96.4314 174.529 85.091 162.034 85.8 152.891C86.5082 143.748 94.6593 128.967 115.037 127.596Z" fill="#FFE0CC" stroke="#263238" stroke-miterlimit="10" stroke-linecap="round" stroke-linejoin="round"/>
<path d="M138.94 143.478C138.94 143.478 139.731 146.015 133.997 146.796" stroke="#263238" stroke-width="2" stroke-miterlimit="10" stroke-linecap="round" stroke-linejoin="round"/>
<path d="M135.696 137.289C135.696 137.289 130.962 135.503 127.972 141.31" stroke="#263238" stroke-width="2" stroke-miterlimit="10" stroke-linecap="round" stroke-linejoin="round"/>
<path d="M132.225 177.423C132.225 177.423 133.642 179.404 139.136 178.49C144.628 177.576 149.413 175.747 149.413 175.747" stroke="#263238" stroke-miterlimit="10" stroke-linecap="round" stroke-linejoin="round"/>
<path d="M67.1938 168.433C67.1938 168.433 54.686 170.572 46.2137 176.037C37.7413 181.501 32.4463 196.255 34.7761 206.637C37.1059 217.019 42.4009 224.851 39.2236 227.948C36.0463 231.044 30.1158 235.415 30.9633 243.794C31.8108 252.172 44.3073 258.365 40.2825 262.555C36.2583 266.744 31.1747 273.118 36.8938 280.222C42.6129 287.326 50.8732 286.962 50.8732 288.965C50.8732 290.969 44.9427 290.605 46.4257 292.244C47.9087 293.883 55.1094 291.697 58.7101 290.423C62.3108 289.147 72.054 285.323 74.5959 275.487C77.1377 265.652 72.9015 262.373 74.5959 259.459C76.2902 256.545 86.0334 253.084 85.6093 239.059C85.1859 225.034 82.2207 207.731 73.9604 197.531C65.7001 187.332 65.0647 174.764 70.7831 171.303C70.7831 171.301 70.3826 166.658 67.1938 168.433Z" fill="#263238" stroke="#263238" stroke-miterlimit="10" stroke-linecap="round" stroke-linejoin="round"/>
<path d="M100.684 125.006C100.684 125.006 114.151 120.282 116.454 122.263C118.757 124.244 122.479 133.539 121.77 140.853C121.061 148.167 118.58 150.301 121.061 152.739C123.541 155.177 126.376 159.291 124.604 161.577C122.832 163.863 112.378 162.339 111.315 164.777C110.251 167.215 110.96 176.51 113.441 179.253C115.921 181.996 121.06 189.158 116.099 193.882C111.138 198.605 102.809 200.587 93.0634 197.539C83.318 194.491 76.4072 185.196 77.4703 179.101C78.5335 173.006 68.2561 174.377 67.193 168.434C66.1299 162.492 65.7757 157.463 68.9651 148.93C72.1553 140.396 75.2376 131.998 100.684 125.006Z" fill="#263238" stroke="#263238" stroke-miterlimit="10" stroke-linecap="round" stroke-linejoin="round"/>
<path d="M67.5424 238.184C68.7055 241.99 69.0924 245.825 68.15 249.783C64.2173 266.294 41.2207 257.084 47.8367 249.769C54.4519 242.455 59.4927 248.686 59.4927 248.686" stroke="#828282" stroke-miterlimit="10" stroke-linecap="round" stroke-linejoin="round"/>
<path d="M50.8426 191.349C50.4092 193.901 50.3021 196.753 50.6713 199.923C52.2192 213.236 62.1459 224.292 66.5635 235.411" stroke="#828282" stroke-miterlimit="10" stroke-linecap="round" stroke-linejoin="round"/>
<path d="M63.2718 173.375C63.2718 173.375 55.8527 177.177 52.2998 186.124" stroke="#828282" stroke-miterlimit="10" stroke-linecap="round" stroke-linejoin="round"/>
<path d="M80.8627 234.064C81.4439 236.884 81.3297 239.647 80.283 242.455" stroke="#828282" stroke-miterlimit="10" stroke-linecap="round" stroke-linejoin="round"/>
<path d="M64.5322 176.897C64.5322 176.897 54.4512 191.254 64.5322 206.424C70.4955 215.399 76.3189 222.597 79.2513 229.209" stroke="#828282" stroke-miterlimit="10" stroke-linecap="round" stroke-linejoin="round"/>
<path d="M107.32 143.239C106.055 148.484 103.807 154.077 99.8145 157.392C90.6789 164.977 74.6125 169.582 73.0381 168.77" stroke="#828282" stroke-miterlimit="10" stroke-linecap="round" stroke-linejoin="round"/>
<path d="M108.95 130.302C108.95 130.302 108.95 133.96 108.208 138.723" stroke="#828282" stroke-miterlimit="10" stroke-linecap="round" stroke-linejoin="round"/>
<path d="M100.388 175.632C102.131 175.236 103.848 174.678 105.484 173.917" stroke="#828282" stroke-miterlimit="10" stroke-linecap="round" stroke-linejoin="round"/>
<path d="M78.0781 174.458C78.0781 174.458 86.0078 176.913 94.7779 176.404" stroke="#828282" stroke-miterlimit="10" stroke-linecap="round" stroke-linejoin="round"/>
<path d="M113.144 195.708C113.144 195.708 110.179 195.708 109.12 197.894C108.061 200.08 107.426 201.355 107.426 201.355C107.426 201.355 100.86 200.808 99.8009 203.722C98.742 206.636 98.9534 207.729 98.9534 207.729C98.9534 207.729 95.1406 209.55 95.1406 212.829C95.1406 216.108 96.8349 217.747 99.8002 219.204C102.765 220.661 112.085 226.49 114.838 232.318C117.592 238.147 113.78 263.282 119.075 266.014C124.37 268.746 135.384 268.928 135.384 268.928C135.384 268.928 135.807 275.485 139.408 276.76C143.009 278.035 153.599 277.671 163.342 271.478C173.085 265.285 177.109 259.275 175.627 256.542C174.144 253.81 164.613 248.892 158.471 236.507C152.329 224.121 135.808 206.089 127.336 200.989C118.863 195.89 113.144 195.708 113.144 195.708Z" fill="white" stroke="#263238" stroke-miterlimit="10" stroke-linecap="round" stroke-linejoin="round"/>
<path d="M135.384 268.928L134.651 263.776" stroke="#263238" stroke-miterlimit="10" stroke-linecap="round" stroke-linejoin="round"/>
<path d="M109.968 202.083C109.968 202.083 125.218 207.729 133.689 219.568Z" fill="white"/>
<path d="M109.968 202.083C109.968 202.083 125.218 207.729 133.689 219.568" stroke="#263238" stroke-miterlimit="10" stroke-linecap="round" stroke-linejoin="round"/>
<path d="M117.248 218.273C118.261 219.568 119.234 221.025 120.134 222.665Z" fill="white"/>
<path d="M117.248 218.273C118.261 219.568 119.234 221.025 120.134 222.665" stroke="#263238" stroke-miterlimit="10" stroke-linecap="round" stroke-linejoin="round"/>
<path d="M101.072 208.094C101.072 208.094 109.313 209.106 116.227 217.038Z" fill="white"/>
<path d="M101.072 208.094C101.072 208.094 109.313 209.106 116.227 217.038" stroke="#263238" stroke-miterlimit="10" stroke-linecap="round" stroke-linejoin="round"/>
<path d="M119.075 266.014C119.075 266.014 116.745 262.372 124.158 262.007C131.572 261.643 135.172 264.193 138.561 265.104C141.95 266.014 155.294 266.925 163.343 260.55C163.343 260.55 158.471 253.994 155.082 244.158C151.694 234.322 149.999 224.305 143.433 216.473" fill="white"/>
<path d="M119.075 266.014C119.075 266.014 116.745 262.372 124.158 262.007C131.572 261.643 135.172 264.193 138.561 265.104C141.95 266.014 155.294 266.925 163.343 260.55C163.343 260.55 158.471 253.994 155.082 244.158C151.694 234.322 149.999 224.305 143.433 216.473" stroke="#263238" stroke-miterlimit="10" stroke-linecap="round" stroke-linejoin="round"/>
<path d="M137.107 228.144C137.414 229.087 137.699 230.069 137.926 231.043Z" fill="white"/>
<path d="M137.107 228.144C137.414 229.087 137.699 230.069 137.926 231.043" stroke="#263238" stroke-miterlimit="10" stroke-linecap="round" stroke-linejoin="round"/>
<path d="M134.537 221.754C134.537 221.754 135.387 223.483 136.294 225.855Z" fill="white"/>
<path d="M134.537 221.754C134.537 221.754 135.387 223.483 136.294 225.855" stroke="#263238" stroke-miterlimit="10" stroke-linecap="round" stroke-linejoin="round"/>
<path d="M172.385 142.599C172.385 142.599 172.365 140.451 171.3 140.044C170.235 139.637 168.106 140.247 167.751 141.875C167.397 143.502 167.916 145.596 167.916 145.596C167.916 145.596 170.729 143.311 172.385 142.599Z" fill="#FFE0CC" stroke="#263238" stroke-miterlimit="10" stroke-linecap="round" stroke-linejoin="round"/>
<path d="M189.668 139.447C189.668 139.447 189.316 138.195 187.71 137.849C186.103 137.504 184.497 138.497 184.196 139.403C183.894 140.31 184.396 141.001 186.103 141.346C187.811 141.692 189.366 141.389 189.718 140.828C190.07 140.267 189.668 139.447 189.668 139.447Z" fill="#FFE0CC" stroke="#263238" stroke-miterlimit="10" stroke-linecap="round" stroke-linejoin="round"/>
<path d="M196.194 139.706C196.194 139.706 195.843 138.454 194.236 138.108C192.63 137.763 191.023 138.756 190.722 139.662C190.421 140.569 190.923 141.26 192.63 141.605C194.337 141.951 195.893 141.648 196.245 141.087C196.596 140.526 196.194 139.706 196.194 139.706Z" fill="#FFE0CC" stroke="#263238" stroke-miterlimit="10" stroke-linecap="round" stroke-linejoin="round"/>
<path d="M206.763 139.135C206.763 139.135 206.482 138.355 205.236 138.148C203.989 137.942 202.752 138.572 202.524 139.141C202.296 139.709 202.69 140.138 204.014 140.343C205.339 140.549 206.542 140.351 206.81 139.998C207.079 139.645 206.763 139.135 206.763 139.135Z" fill="#FFE0CC" stroke="#263238" stroke-miterlimit="10" stroke-linecap="round" stroke-linejoin="round"/>
<path d="M248.169 150.797L247.777 147.1C247.777 147.1 248.813 144.151 247.842 141.596C246.871 139.041 244.387 139.059 242.965 138.88C241.543 138.7 221.314 138.562 219.311 139.335C217.307 140.109 216.715 140.018 216.715 140.018L191.291 140.866L189.043 140.882C189.043 140.882 179.575 140.476 174.502 141.841C169.429 143.206 166.159 147.5 166.159 147.5L163.675 147.517L163.712 151.408L163.75 155.297L166.234 155.28C166.234 155.28 169.588 159.525 174.687 160.817C179.787 162.108 189.245 161.566 189.245 161.566L191.493 161.55L216.93 162.03C216.93 162.03 217.521 161.931 219.539 162.675C221.558 163.42 241.782 162.989 243.199 162.789C244.616 162.589 247.1 162.571 248.022 160.002C248.943 157.434 247.85 154.5 247.85 154.5L248.169 150.797Z" fill="#FFE0CC" stroke="#263238" stroke-miterlimit="10" stroke-linecap="round" stroke-linejoin="round"/>
<path d="M248.168 150.797L247.777 147.1C247.777 147.1 248.813 144.151 247.841 141.596C246.87 139.041 244.386 139.059 242.965 138.88C242.846 138.865 242.584 138.85 242.222 138.836L164.713 152.2L163.726 152.695L163.752 155.297L166.236 155.28C166.236 155.28 169.589 159.525 174.689 160.817C179.788 162.108 189.246 161.566 189.246 161.566L191.494 161.55L216.932 162.03C216.932 162.03 217.522 161.931 219.541 162.675C221.559 163.42 241.783 162.989 243.2 162.789C244.618 162.589 247.102 162.571 248.024 160.002C248.945 157.434 247.851 154.5 247.851 154.5L248.168 150.797Z" fill="#02A2FF" stroke="#263238" stroke-miterlimit="10" stroke-linecap="round" stroke-linejoin="round"/>
<path d="M163.911 147.101L162.018 147.115L162.102 155.659L163.995 155.645L163.911 147.101Z" fill="#02A2FF" stroke="#263238" stroke-miterlimit="10" stroke-linecap="round" stroke-linejoin="round"/>
<path d="M161.906 147.622L159.067 147.643L159.144 155.373L161.983 155.353L161.906 147.622Z" fill="#FFE0CC" stroke="#263238" stroke-miterlimit="10" stroke-linecap="round" stroke-linejoin="round"/>
<path d="M195.195 184.09C192.237 183.276 187.033 177.579 184.549 174.528C182.065 171.476 181.592 166.187 181.592 163.643C181.592 161.1 185.376 157.336 185.376 157.336C185.376 157.336 186.56 153.675 189.044 154.997C191.528 156.32 191.054 161.202 190.463 162.83C189.872 164.458 189.398 164.661 189.753 165.169C190.108 165.678 193.066 165.983 197.679 168.628C202.292 171.273 201.582 176.054 201.582 176.054" fill="#FFE0CC"/>
<path d="M195.195 184.09C192.237 183.276 187.033 177.579 184.549 174.528C182.065 171.476 181.592 166.187 181.592 163.643C181.592 161.1 185.376 157.336 185.376 157.336C185.376 157.336 186.56 153.675 189.044 154.997C191.528 156.32 191.054 161.202 190.463 162.83C189.872 164.458 189.398 164.661 189.753 165.169C190.108 165.678 193.066 165.983 197.679 168.628C202.292 171.273 201.582 176.054 201.582 176.054" stroke="#263238" stroke-miterlimit="10" stroke-linecap="round" stroke-linejoin="round"/>
<path d="M173.548 144.011C173.548 144.011 173.548 146.554 175.677 148.791C177.806 151.029 179.699 152.86 181.354 152.758" stroke="#263238" stroke-miterlimit="10" stroke-linecap="round" stroke-linejoin="round"/>
<path d="M184.194 142.383C184.194 142.383 186.087 148.08 184.667 150.216" stroke="#263238" stroke-miterlimit="10" stroke-linecap="round" stroke-linejoin="round"/>
<path d="M190.582 143.808C190.582 143.808 190.7 151.03 191.765 150.826C192.829 150.623 191.765 145.028 191.765 145.028" stroke="#263238" stroke-miterlimit="10" stroke-linecap="round" stroke-linejoin="round"/>
<path d="M196.733 141.57C196.733 141.57 198.388 145.13 198.388 147.673C198.388 150.216 198.507 151.436 199.808 151.436" stroke="#263238" stroke-miterlimit="10" stroke-linecap="round" stroke-linejoin="round"/>
<path d="M203.356 141.57C203.356 141.57 203.238 143.095 203.711 144.519C204.185 145.943 202.41 148.995 202.41 148.995" stroke="#263238" stroke-miterlimit="10" stroke-linecap="round" stroke-linejoin="round"/>
<path d="M208.088 141.061C208.088 141.061 209.034 148.08 207.97 151.132C206.905 154.184 207.496 158.151 207.496 158.151" stroke="#263238" stroke-miterlimit="10" stroke-linecap="round" stroke-linejoin="round"/>
<path d="M169.053 147.877C169.053 147.877 171.418 153.369 172.72 155.709C174.021 158.049 176.624 160.49 176.624 160.49" stroke="#263238" stroke-miterlimit="10" stroke-linecap="round" stroke-linejoin="round"/>
<path d="M244.691 234.505C246.431 234.867 248.301 235.074 250.306 235.074" stroke="#263238" stroke-miterlimit="10" stroke-linecap="round" stroke-linejoin="round"/>
<path d="M226.778 221.829C226.778 221.829 231.17 229.593 240.426 233.232" stroke="#263238" stroke-miterlimit="10" stroke-linecap="round" stroke-linejoin="round"/>
<path d="M118.758 163.862C118.758 163.862 111.847 160.662 107.595 163.862C103.342 167.062 111.138 173.614 117.518 175.29C123.897 176.967 126.201 174.681 126.378 172.548" fill="#FFE0CC"/>
<path d="M118.758 163.862C118.758 163.862 111.847 160.662 107.595 163.862C103.342 167.062 111.138 173.614 117.518 175.29C123.897 176.967 126.201 174.681 126.378 172.548" stroke="#263238" stroke-miterlimit="10" stroke-linecap="round" stroke-linejoin="round"/>
<path d="M105.548 85.1294C108.3 75.2453 101.213 65.3145 89.7187 62.9485C78.2248 60.5824 66.6767 66.6769 63.9253 76.561C61.1738 86.4451 68.261 96.3758 79.7549 98.7419C91.2487 101.108 102.797 95.0135 105.548 85.1294Z" fill="#FFFF02"/>
<path d="M84.1685 103.043V109.412" stroke="#92E3A9" stroke-miterlimit="10"/>
<path d="M84.1685 52.8889V59.2579" stroke="#92E3A9" stroke-miterlimit="10"/>
<path d="M58.7108 81.1507H51.3044" stroke="#92E3A9" stroke-miterlimit="10"/>
<path d="M117.033 81.1507H109.627" stroke="#92E3A9" stroke-miterlimit="10"/>
<path d="M66.1671 96.6309L60.9307 101.134" stroke="#92E3A9" stroke-miterlimit="10"/>
<path d="M107.407 61.1668L102.171 65.6699" stroke="#92E3A9" stroke-miterlimit="10"/>
<path d="M102.171 96.6309L107.407 101.134" stroke="#92E3A9" stroke-miterlimit="10"/>
<path d="M60.9307 61.1668L66.1671 65.6699" stroke="#92E3A9" stroke-miterlimit="10"/>
</g>
<defs>
<linearGradient id="paint0_linear_8_810" x1="283" y1="370" x2="283" y2="890" gradientUnits="userSpaceOnUse">
<stop stop-color="#68CEFF"/>
<stop offset="0.631569" stop-color="#016199"/>
</linearGradient>
<linearGradient id="paint1_linear_8_810" x1="63.5" y1="370" x2="63.5" y2="971" gradientUnits="userSpaceOnUse">
<stop stop-color="#02A2FF"/>
<stop offset="1" stop-color="#016199"/>
</linearGradient>
<clipPath id="clip0_8_810">
<rect width="393" height="852" fill="white"/>
</clipPath>
</defs>
</svg>
